<?xml version="1.0" encoding="utf-8" ?>
<svg baseProfile="full" height="200mm" version="1.1" viewBox="0,0,200,200" width="200mm" xmlns="http://www.w3.org/2000/svg" xmlns:ev="http://www.w3.org/2001/xml-events" xmlns:xlink="http://www.w3.org/1999/xlink"><defs /><rect fill="#1a1a1a" height="200" width="200" x="0" y="0" /><text alignment-baseline="middle" fill="#e1ed5e" style="dominant-baseline: central; font-size:9.0px; font-family:Arial;" text-anchor="middle" x="100.0" y="100.0">2023</text><line stroke="#e1ed5e" stroke-width="0.3" x1="100.0" x2="100.0" y1="15.0" y2="10.0" /><path d="M 100.0 14.0 a86.0,86.0 0 0,1 42.46469731375804,11.215312516191453" fill="none" id="id13" stroke="none" /><text fill="#e1ed5e" style="font-size:6.75px; font-family:Arial;" text-anchor="middle"><textPath startOffset="22.20632615414155" xlink:href="#id13">January</textPath></text><path d="M 100.0 79.0 l 0.0 -4.029659348079321 a25.02965934807932,25.02965934807932 0 0,0 0.43084444081770634,0.0037084141245624204 l -0.06936396154517796 4.029062310563317" fill="#ff2d04" stroke="none" /><path d="M 100.36148047927253 79.00311137660856 l 0.12986498363908205 -7.543313550529489 a28.54443133944351,28.54443133944351 0 0,0 0.49119986664684606,0.012686243374722373 l -0.2596914854807959 7.539960515012407" fill="#ff5e08" stroke="none" /><path d="M 100.72285384407766 79.0124445844662 l 0.10462217531150436 -3.0376316319457604 a24.03943279757332,24.03943279757332 0 0,0 0.41343150185734207,0.017803230146242948 l -0.15689450955817796 3.0353806752753223" fill="#ff1f03" stroke="none" /><path d="M 101.08401301168833 79.027996857942 l 0.19110102173776397 -3.697161551679951 a24.702097127268505,24.702097127268505 0 0,0 0.42445019603659406,0.025603994948134187 l -0.25471326661397 3.693324287351513" fill="#ff2803" stroke="none" /><path d="M 101.44485096284872 79.0497635885617 l 0.5047011380309367 -7.318130679736541 a28.335513607405478,28.335513607405478 0 0,0 0.48630462350313397,0.03774659828201733 l -0.6305959508964118 7.308358819266059" fill="#ff5b08" stroke="none" /><path d="M 101.80526077348638 79.07773832637324 l 0.3124430373158182 -3.6210918006044035 a24.63454625503261,24.63454625503261 0 0,0 0.4221597239390172,0.04008915258959025 l -0.3747278883450796 3.615177103499635" fill="#ff2703" stroke="none" /><path d="M 102.16513564639614 79.11191278185805 l 1.3743533634519578 -13.259036666878147 a34.3300750373451,34.3300750373451 0 0,0 0.5872621916392367,0.0659857498173887 l -1.6023822586009198 13.233414963590157" fill="#ffab0f" stroke="none" /><path d="M 102.52436894288641 79.15227682838746 l 1.3162521663892603 -10.870384404881104 a31.949784330086448,31.949784330086448 0 0,0 0.5454060528422288,0.07080935891744822 l -1.5031729477393352 10.846116722799518" fill="#ff8c0c" stroke="none" /><path d="M 103.59715602781102 79.31037775812273 l 2.5917997676848152 -14.907153791884703 a36.130785181565216,36.130785181565216 0 0,0 0.6118230232832191,0.11180674683066118 l -2.8480179120709352 14.860331563703303" fill="#ffc212" stroke="none" /><path d="M 104.66035177308747 79.52364482259891 l 1.2678616877485513 -5.570649491327838 a26.71310852465553,26.71310852465553 0 0,0 0.4474780393606336,0.10590359448105631 l -1.3635634140717083 5.547999984705913" fill="#ff4406" stroke="none" /><path d="M 105.01212808612495 79.60689891045804 l 0.4259462995502461 -1.7330694260369983 a22.78464559102494,22.78464559102494 0 0,0 0.3800599440475224,0.09688574212536868 l -0.45571513228279353 1.7254806877427618" fill="#ff0c01" stroke="none" /><path d="M 106.0581310904928 79.89281104454417 l 2.682762540404708 -8.904200407150363 a30.299569868488295,30.299569868488295 0 0,0 0.4980883199607495,0.15475846558150944 l -2.8356362330761757 8.856701806686333" fill="#ff760a" stroke="none" /><path d="M 106.74666289553966 80.11325718540242 l 4.705856021062849 -13.871175996546771 a35.647682561352454,35.647682561352454 0 0,0 0.579390265315686,0.20213788694256324 l -4.943928290441809 13.788117256432" fill="#ffbc11" stroke="none" /><path d="M 108.76106565485865 80.91482961587045 l 3.0953568383689074 -6.742948288167381 a28.41947340272452,28.41947340272452 0 0,0 0.44283194860776276,0.2079155375995027 l -3.2109669982762683 6.688667767927876" fill="#ff5c08" stroke="none" /><path d="M 109.41281617654863 81.2277094730956 l 10.838041125607127 -21.61466376654933 a45.1796779379158,45.1796779379158 0 0,0 0.6921946452686708,0.35456898229249695 l -11.208496258464553 21.424902258944336" fill="#ceff1d" stroke="none" /><line stroke="#e1ed5e" stroke-width="0.3" x1="143.23703022742887" x2="145.7803849466894" y1="26.81831364943548" y2="22.513508569990506" /><path d="M 143.74570117128098 25.957352633546492 a86.0,86.0 0 0,1 28.547481713284135,27.462654790039103" fill="none" id="id14" stroke="none" /><text fill="#e1ed5e" style="font-size:6.75px; font-family:Arial;" text-anchor="middle"><textPath startOffset="19.985693538727396" xlink:href="#id14">February</textPath></text><path d="M 110.68208982089419 81.91981866633111 l 4.102894081540311 -6.944434116439211 a29.06591005664602,29.06591005664602 0 0,0 0.4285670634973268,0.2582068604875365 l -4.221823211255275 6.8727806464930605" fill="#ff6509" stroke="none" /><path d="M 111.2981086023043 82.29822771554956 l 17.665766136014764 -27.678559339242835 a53.83568090154905,53.83568090154905 0 0,0 0.7768565001202301,0.5052890773476032 l -18.139589661919274 27.370371337735705" fill="#6eff28" stroke="none" /><path d="M 113.89432698308785 84.25364557470407 l 4.844323858305149 -5.490042124144511 a28.321750895040452,28.321750895040452 0 0,0 0.3627733239433008,0.32570147212101463 l -4.93810816984444 5.405841643254199" fill="#ff5b08" stroke="none" /><path d="M 114.68862486808459 84.99185889309783 l 2.3768441857551093 -2.4285468006226205 a24.39812122299547,24.39812122299547 0 0,0 0.29761548573853813,0.29633743026088694 l -2.41829547166097 2.387273519711615" fill="#ff2403" stroke="none" /><path d="M 115.4437574822437 85.77008943001954 l 46.331272446731084 -42.689731709941405 a84.0,84.0 0 0,0 0.9706254375358574,1.0717888509218039 l -47.05924152488298 41.88589007175005" fill="#4dd2ff" stroke="none" /><line stroke="#e1ed5e" stroke-width="0.3" x1="172.23445277983987" x2="176.4835382374775" y1="55.19839476539836" y2="52.563006222186495" /><path d="M 173.08426987136738 54.67131705675599 a86.0,86.0 0 0,1 12.851231095245387,41.99856678651699" fill="none" id="id15" stroke="none" /><text fill="#e1ed5e" style="font-size:6.75px; font-family:Arial;" text-anchor="middle"><textPath startOffset="22.20632615414155" xlink:href="#id15">March</textPath></text><path d="M 118.3937258080291 89.86733742301442 l 4.929249363162433 -2.7154053004826113 a26.627692709283824,26.627692709283824 0 0,0 0.21770281784207457,0.403370258133468 l -4.975260280222972 2.6301540590166845" fill="#ff4306" stroke="none" /><path d="M 119.34039704204932 91.81776055985345 l 5.795575152337737 -2.4519033133958046 a27.29289450131145,27.29289450131145 0 0,0 0.1793251211087587,0.43425000470587477 l -5.836921960332693 2.351778738236627" fill="#ff4c07" stroke="none" /><path d="M 120.08093135843002 93.85539295169968 l 8.84373819368938 -2.7061143264878433 a30.248500418259333,30.248500418259333 0 0,0 0.14806511734339364,0.4992019685692373 l -8.889009208144476 2.5534829711720763" fill="#ff750a" stroke="none" /><path d="M 120.37134235888165 94.90015583598534 l 17.21636272496605 -4.310013813606024 a38.74765800186253,38.74765800186253 0 0,0 0.1564062126318733,0.6484047266888133 l -17.288001737858743 4.013023855257805" fill="#ffe315" stroke="none" /><path d="M 120.6074358757038 95.95851677861258 l 13.177727265969066 -2.5843857509814887 a34.42875815576931,34.42875815576931 0 0,0 0.10904780597207255,0.5825377399278296 l -13.220260795850999 2.3571699335910963" fill="#ffac10" stroke="none" /><path d="M 120.73433829027371 96.67025291283417 l 5.971888281232259 -0.9590312133877299 a27.048403964003324,27.048403964003324 0 0,0 0.06986745271048855,0.4603392183386815 l -5.987511627382047 0.8560928826569663" fill="#ff4906" stroke="none" /><path d="M 120.87857604477298 97.74499172005257 l 6.03228638472363 -0.6515221974619023 a27.067368474149866,27.067368474149866 0 0,0 0.04604400962451721,0.4636568933138604 l -6.042607520030376 0.547589773443607" fill="#ff4906" stroke="none" /><line stroke="#e1ed5e" stroke-width="0.3" x1="184.98032266829074" x2="189.97916517819016" y1="98.17113171792111" y2="98.06355123074" /><path d="M 185.9800911702706 98.14961562048488 a86.0,86.0 0 0,1 -9.607161424134198,41.387399972396054" fill="none" id="id16" stroke="none" /><text fill="#e1ed5e" style="font-size:6.75px; font-family:Arial;" text-anchor="middle"><textPath startOffset="21.466115282336823" xlink:href="#id16">April</textPath></text><path d="M 120.8583938346157 102.4346265915055 l 13.03077709825488 1.5209740828051073 a34.119242125403765,34.119242125403765 0 0,0 -0.07311020958497769,0.5827603041691399 l -13.002665379423053 -1.7450521412616422" fill="#ffa80f" stroke="none" /><path d="M 120.81339534386255 102.79330883721812 l 3.639183226932814 0.4884048229567178 a24.67181070185767,24.67181070185767 0 0,0 -0.060112219414253265,0.42042472257628394 l -3.6302369565019594 -0.550975017513411" fill="#ff2803" stroke="none" /><path d="M 120.49622156327973 104.57218783832717 l 32.38581915074179 7.2244558831550005 a54.181833054733524,54.181833054733524 0 0,0 -0.210894874797104,0.9085296009942487 l -32.25666371001413 -7.780854141497814" fill="#6bff28" stroke="none" /><path d="M 119.79798401119884 107.00284435728193 l 5.574672080306008 1.9718452595570153 a26.91313305537604,26.91313305537604 0 0,0 -0.15824376155605793,0.43541886881100583 l -5.539904057744723 -2.067511925374152" fill="#ff4706" stroke="none" /><path d="M 119.67450827220406 107.3425965602758 l 1.9160198041020877 0.7150654150221483 a23.04510401629653,23.04510401629653 0 0,0 -0.14189827507951397,0.3704516197990749 l -1.903427249429067 -0.747940601654367" fill="#ff1001" stroke="none" /><path d="M 119.26925614724726 108.34839909993367 l 3.3809847260613073 1.4648105577221222 a24.684661136098413,24.684661136098413 0 0,0 -0.1722741504706042,0.38843273026371533 l -3.35526949085943 -1.5227916244785253" fill="#ff2803" stroke="none" /><path d="M 118.97047184881838 109.00673069616215 l 2.467767121156133 1.171637377194763 a23.731777572918237,23.731777572918237 0 0,0 -0.17838018117281443,0.3675160076804096 l -2.447233683368604 -1.2139423408404482" fill="#ff1a02" stroke="none" /><line stroke="#e1ed5e" stroke-width="0.3" x1="174.80103733775053" x2="179.2010983576182" y1="140.37084112569926" y2="142.7455964860345" /><path d="M 175.68104954172406 140.8457921977663 a86.0,86.0 0 0,1 -30.038265399797805,32.042727171017184" fill="none" id="id17" stroke="none" /><text fill="#e1ed5e" style="font-size:6.75px; font-family:Arial;" text-anchor="middle"><textPath startOffset="22.206326154141568" xlink:href="#id17">May</textPath></text><path d="M 118.12598468904814 110.60418214915192 l 2.9848543776245173 1.7462190359317826 a24.45812616558083,24.45812616558083 0 0,0 -0.21571965287862652,0.36155854639582863 l -2.9543538490476635 -1.7973396762137155" fill="#ff2503" stroke="none" /><path d="M 117.94076556474637 110.91462005526583 l 3.280944797492583 1.9960277479629882 a24.840406949117742,24.840406949117742 0 0,0 -0.22537980423069465,0.3633840069118345 l -3.2461003535939255 -2.052208086240096" fill="#ff2a04" stroke="none" /><path d="M 116.93607887273984 112.41649034213515 l 15.984639990953509 11.718953930336374 a40.820257235004206,40.820257235004206 0 0,0 -0.4203295579846578,0.5631001321951152 l -15.78054916627376 -11.992366942040805" fill="#fffd17" stroke="none" /><path d="M 116.0416608686014 113.55231037782055 l 5.54643124245254 4.685734120840517 a28.26078534171495,28.26078534171495 0 0,0 -0.31713646434226034,0.3689013551354415 l -5.464952268539501 -4.780512575137487" fill="#ff5a08" stroke="none" /><path d="M 115.56566222782051 114.09645910891815 l 5.405991138959818 4.895733436725818 a28.293349441648004,28.293349441648004 0 0,0 -0.33002655121732916,0.35817864031092744 l -5.3209181797467675 -4.98806333183808" fill="#ff5a08" stroke="none" /><path d="M 114.29624159901734 115.38237550388516 l 13.509819102905448 14.536205826623458 a40.84481020385911,40.84481020385911 0 0,0 -0.5191189640643061,0.47420286548090457 l -13.257600589374277 -14.766601458690946" fill="#fffd17" stroke="none" /><path d="M 113.48314897796784 116.09983520530334 l 5.084817268985433 6.071632095255881 a28.919601186872594,28.919601186872594 0 0,0 -0.3843964077062164,0.3163320739680177 l -4.979550732734525 -6.1582592880810765" fill="#ff6309" stroke="none" /><path d="M 113.20401910651253 116.32954008644616 l 2.288078585114433 2.8296892540951197 a24.6390170219993,24.6390170219993 0 0,0 -0.33208995975650224,0.2638323485951457 l -2.2390311326405796 -2.8686555166953913" fill="#ff2703" stroke="none" /><path d="M 111.7513745106137 117.40417183066458 l 2.045898854175676 3.0300434365421043 a24.656072393819525,24.656072393819525 0 0,0 -0.35378564009318675,0.23446983091245108 l -1.9934385153425251 -3.0648112885458736" fill="#ff2703" stroke="none" /><path d="M 111.45004920935366 117.60387380957326 l 2.195436762393379 3.375373416779641 a25.026547935933582,25.026547935933582 0 0,0 -0.36314498038208537,0.2317763080899224 l -2.1370099799643634 -3.412664153693372" fill="#ff2d04" stroke="none" /><path d="M 111.1453310114006 117.79835938074945 l 1.927821414046652 3.0786037950787617 a24.632395453627012,24.632395453627012 0 0,0 -0.361299531200474,0.22193968140335502 l -1.8745426829138694 -3.111331943310495" fill="#ff2703" stroke="none" /><line stroke="#e1ed5e" stroke-width="0.3" x1="143.8653032363475" x2="146.44561519142675" y1="172.8068346515853" y2="177.08958963109032" /><path d="M 144.38136562736335 173.6633856474863 a86.0,86.0 0 0,1 -40.68145358897372,12.25698825130547" fill="none" id="id18" stroke="none" /><text fill="#e1ed5e" style="font-size:6.75px; font-family:Arial;" text-anchor="middle"><textPath startOffset="21.466115282336833" xlink:href="#id18">June</textPath></text><path d="M 110.21172684928248 118.3499491758327 l 4.321442208549035 7.76540991191365 a29.88686974484694,29.88686974484694 0 0,0 -0.4516862229365466,0.24629534280875456 l -4.18713317374384 -7.838645906482175" fill="#ff700a" stroke="none" /><path d="M 109.2508944713604 118.85261126421891 l 1.6024804862819917 3.2657319527209117 a24.637712041371184,24.637712041371184 0 0,0 -0.3823389639876664,0.1835459374146579 l -1.5460288542940925 -3.29283216663513" fill="#ff2703" stroke="none" /><path d="M 108.92500713936063 119.00905698771935 l 1.5469968667403755 3.2948939021014314 a24.639989715893403,24.639989715893403 0 0,0 -0.38547739074441106,0.1769537636186744 l -1.4900514802285452 -3.3210347360541803" fill="#ff2703" stroke="none" /><path d="M 107.2578585660854 119.70592522655815 l 6.267341589534354 17.016557102637922 a39.13402289143929,39.13402289143929 0 0,0 -0.6341210716107132,0.22737325533252367 l -5.973500957293906 -17.121917899010406" fill="#ffe815" stroke="none" /><path d="M 105.18746579009965 120.34920634021253 l 4.318654624187692 16.941064792645136 a38.48286172431786,38.48286172431786 0 0,0 -0.6432991524763328,0.15810728028806306 l -4.0264021869681486 -17.01289333124723" fill="#ffe015" stroke="none" /><path d="M 103.06178313531738 120.77559828337769 l 0.5292083586371361 3.59092064373499 a24.629706951870016,24.629706951870016 0 0,0 -0.41996161271007676,0.0582028528226865 l -0.4673181547402289 -3.599498062050279" fill="#ff2703" stroke="none" /><path d="M 102.34483914955558 120.86867818915974 l 0.545621059457999 4.855936623719119 a25.88649392039944,25.88649392039944 0 0,0 -0.4432352096163276,0.04594314175616465 l -0.4619532532360687 -4.864609133931042" fill="#ff3905" stroke="none" /><path d="M 101.62511606390274 120.93702456842531 l 0.2821633431944663 3.6352239572257123 a24.64615816599204,24.64615816599204 0 0,0 -0.42325344944710436,0.029190035947699963 l -0.2195471329684316 -3.6395423376896976" fill="#ff2703" stroke="none" /><path d="M 101.26447882468166 120.96189622390904 l 0.3065978944117438 5.082626232784864 a26.09186524674903,26.09186524674903 0 0,0 -0.44854641292495573,0.02318472606852027 l -0.21906341307330843 -5.087150765615585" fill="#ff3c05" stroke="none" /><line stroke="#e1ed5e" stroke-width="0.3" x1="102.19456741930631" x2="102.32365962044197" y1="184.97166512339345" y2="189.96999836594603" /><path d="M 102.22038585953345 185.97133177190398 a86.0,86.0 0 0,1 -42.740103519485714,-10.115201625700543" fill="none" id="id19" stroke="none" /><text fill="#e1ed5e" style="font-size:6.75px; font-family:Arial;" text-anchor="middle"><textPath startOffset="22.20632615414155" xlink:href="#id19">July</textPath></text><path d="M 100.18074693466247 120.99922214144158 l 0.02307648645986921 2.6810317216151445 a23.681131033078017,23.681131033078017 0 0,0 -0.4076468422446475,0.0 l 0.023076486459867363 -2.6810317216151445" fill="#ff1902" stroke="none" /><path d="M 98.37488393609728 120.93702456842531 l -0.07173410550317477 0.9241793633540071 a21.926959156350353,21.926959156350353 0 0,0 -0.37605328260993864,-0.03244745957327595 l 0.08763170585465509 -0.9228076515020678" fill="#ff0000" stroke="none" /><path d="M 98.01472825383883 120.90594882070398 l -0.5216476765503137 5.493222602642441 a26.51793538025158,26.51793538025158 0 0,0 -0.45404691276465375,-0.04706381899387157 l 0.6161271859205608 -5.483429415192809" fill="#ff4206" stroke="none" /><path d="M 97.2962882734958 120.8252237178851 l -1.1875049735091956 9.146706173222587 a30.22347016482285,30.22347016482285 0 0,0 -0.5153409781495666,-0.07142156377383933 l 1.3447745428455933 -9.124910043956142" fill="#ff750a" stroke="none" /><path d="M 93.08242187328487 119.8279376855182 l -2.8284163970323406 8.107124060149358 a29.58634962260762,29.58634962260762 0 0,0 -0.4794121928068306,-0.17190015567170822 l 2.9675481504688976 -8.057236363437694" fill="#ff6c0a" stroke="none" /><path d="M 90.10565033884886 118.52300852407294 l -1.7168802503941174 3.214136209247612 a24.643946948816623,24.643946948816623 0 0,0 -0.3724488850987531,-0.20308882842995774 l 1.771951947361511 -3.1841067290578886" fill="#ff2703" stroke="none" /><line stroke="#e1ed5e" stroke-width="0.3" x1="58.666819895761336" x2="56.23545636021788" y1="174.27360380694188" y2="178.64263932499728" /><path d="M 58.180547188652646 175.14741091055294 a86.0,86.0 0 0,1 -31.652253787137756,-30.449443065178592" fill="none" id="id20" stroke="none" /><text fill="#e1ed5e" style="font-size:6.75px; font-family:Arial;" text-anchor="middle"><textPath startOffset="22.20632615414155" xlink:href="#id20">August</textPath></text><path d="M 87.95078237400918 117.19931262002967 l -2.0895547017666045 2.982675362657118 a24.641784064257063,24.641784064257063 0 0,0 -0.34530493538855433,-0.24636590298506886 l 2.1405869650040454 -2.94626519782783" fill="#ff2703" stroke="none" /><path d="M 87.65650970185807 116.9893568818739 l -2.1369328318077603 2.9412357149614694 a24.63556728154257,24.63556728154257 0 0,0 -0.34092695782290205,-0.2522096129849411 l 2.1872447600492264 -2.9040161532367614" fill="#ff2703" stroke="none" /><path d="M 87.36589467227662 116.77436683061367 l -3.7664962644991014 5.00079652400911 a27.260547898149753,27.260547898149753 0 0,0 -0.3723937160717346,-0.2855356218011244 l 3.852018709064323 -4.935221560380619" fill="#ff4c07" stroke="none" /><path d="M 86.79598089348748 116.32954008644616 l -4.604586782834261 5.694537689265113 a28.32324920613199,28.32324920613199 0 0,0 -0.3764697576240175,-0.30980898059395234 l 4.701926669002967 -5.61443358981398" fill="#ff5b08" stroke="none" /><path d="M 86.51685102203217 116.09983520530335 l -7.053646412984904 8.42255359123474 a31.986051916709478,31.986051916709478 0 0,0 -0.4190698642993042,-0.3571404298824184 l 7.1975817538612645 -8.29988877112937" fill="#ff8c0c" stroke="none" /><path d="M 85.97065885151581 115.62618273729859 l -4.893314371400277 5.450279079343057 a28.324620644106908,28.324620644106908 0 0,0 -0.35999304814726496,-0.32884511412973627 l 4.986406969014396 -5.3652411986267445" fill="#ff5b08" stroke="none" /><path d="M 83.72743513129214 113.27417163493432 l -2.0585446281338244 1.6792358753823335 a23.656584105800096,23.656584105800096 0 0,0 -0.25468237753757506,-0.31775542518386396 l 2.08714491772626 -1.6435526166202101" fill="#ff1902" stroke="none" /><path d="M 82.85270091963577 112.12312394758628 l -5.955045749545094 4.210211613906751 a28.29304132122192,28.29304132122192 0 0,0 -0.2777286605514737,-0.40008884950670287 l 6.026635317258702 -4.107081502213036" fill="#ff5a08" stroke="none" /><path d="M 82.6465618267979 111.8261652097733 l -5.818583593786135 3.9652966853135134 a28.041270683650467,28.041270683650467 0 0,0 -0.26839087275004136,-0.4012079390094986 l 5.885977571946907 -3.864551832098194" fill="#ff5708" stroke="none" /><path d="M 82.24976979558568 111.22182372390057 l -2.186958254970678 1.3826108025746533 a23.5873536751632,23.5873536751632 0 0,0 -0.21401071103698024,-0.3450534086854835 l 2.210433605675614 -1.3447610625239055" fill="#ff1802" stroke="none" /><line stroke="#e1ed5e" stroke-width="0.3" x1="26.63291911575756" x2="22.317208475507996" y1="142.92168965132927" y2="145.44649492493687" /><path d="M 25.769776987707644 143.4266507060508 a86.0,86.0 0 0,1 -11.730757126820373,-40.83630448921669" fill="none" id="id21" stroke="none" /><text fill="#e1ed5e" style="font-size:6.75px; font-family:Arial;" text-anchor="middle"><textPath startOffset="21.46611528233685" xlink:href="#id21">September</textPath></text><path d="M 81.69416730710424 110.29060199501025 l -12.73735780795368 7.160290486023941 a35.611982882965734,35.611982882965734 0 0,0 -0.2957890438570484,-0.5369430323361456 l 12.858723261262247 -6.939976935289973" fill="#ffbc11" stroke="none" /><path d="M 80.20201598880116 107.00284435728193 l -6.344858987320186 2.244271938595943 a27.730081136460907,27.730081136460907 0 0,0 -0.15530056192076297,-0.4513761275233767 l 6.382550380184178 -2.1347231079832696" fill="#ff5307" stroke="none" /><path d="M 80.0844068197444 106.66101706037122 l -5.732292404189073 1.9172362657615676 a27.044416523195196,27.044416523195196 0 0,0 -0.1438605186850042,-0.4427571500063323 l 5.764445173890326 -1.818280215777432" fill="#ff4906" stroke="none" /><path d="M 79.97269907076064 106.31721596034903 l -6.988468615613977 2.204374200644302 a28.327889137254175,28.327889137254175 0 0,0 -0.1426824886731383,-0.46629462853736237 l 7.025377876793246 -2.083752599554892" fill="#ff5b08" stroke="none" /><path d="M 79.76711848015287 105.62410040840567 l -11.4875852901059 3.193184967662864 a32.92313071450471,32.92313071450471 0 0,0 -0.14707534405613723,-0.5473220686038329 l 11.540848710503813 -2.994971965883492" fill="#ff990e" stroke="none" /><path d="M 79.58551787078972 104.9243191809786 l -5.068766950019807 1.2226725203172473 a26.21414676486499,26.21414676486499 0 0,0 -0.10203473910349678,-0.4395629855606399 l 5.089062255053859 -1.1352408774080331" fill="#ff3d05" stroke="none" /><path d="M 79.29508885075956 103.50808413554451 l -2.55257508996607 0.4324890898275877 a23.588954693063435,23.588954693063435 0 0,0 -0.06438464283130443,-0.40092323237048016 l 2.5596414871586655 -0.38848662776389387" fill="#ff1802" stroke="none" /><path d="M 79.18660465613746 102.79330883721812 l -8.940874704764852 1.199930329130281 a30.021035044886517,30.021035044886517 0 0,0 -0.0643286318032083,-0.5127624889769667 l 8.960204845814909 -1.0458500858659057" fill="#ff720a" stroke="none" /><line stroke="#e1ed5e" stroke-width="0.3" x1="15.007084014347285" x2="10.007500721073583" y1="101.09737516637583" y2="101.16192664675087" /><path d="M 14.007167355692545 101.11028546245083 a86.0,86.0 0 0,1 10.666146001902534,-42.60595125391555" fill="none" id="id22" stroke="none" /><text fill="#e1ed5e" style="font-size:6.75px; font-family:Arial;" text-anchor="middle"><textPath startOffset="22.20632615414155" xlink:href="#id22">October</textPath></text><path d="M 79.08570108090925 98.10471618934814 l -59.943319554998986 -5.432149724398193 a81.18895089550077,81.18895089550077 0 0,0 0.13810965184912768,-1.3907453463594324 l 59.84093277746763 6.463170601462055" fill="#4aecff" stroke="none" /><path d="M 79.32604984820605 96.31383870115002 l -7.1462687256705575 -1.2741783265576365 a28.258972868620347,28.258972868620347 0 0,0 0.08950595825748303,-0.47814440802910374 l 7.123277043503213 1.397000812049313" fill="#ff5a08" stroke="none" /><path d="M 79.54389044137918 95.25157060432595 l -2.6609375006661447 -0.6176772671267623 a23.73168694926351,23.73168694926351 0 0,0 0.09579374513219215,-0.3971269176955787 l 2.6499109552731377 0.6633894164817378" fill="#ff1a02" stroke="none" /><path d="M 79.62865764111835 94.90015583598534 l -7.701572574102694 -1.9280427992340292 a28.93924235364112,28.93924235364112 0 0,0 0.12513282660022731,-0.48218782578317804 l 7.66724341563216 2.0603270505660713" fill="#ff6309" stroke="none" /><path d="M 80.02781315780177 93.51064311812611 l -22.977342061646144 -7.465791002909641 a45.159807191221944,45.159807191221944 0 0,0 0.2465783669185944,-0.7372379319996581 l 22.845426400955777 7.8602020378316215" fill="#ceff1d" stroke="none" /><path d="M 80.65960295795068 91.81776055985345 l -2.415862543028034 -1.0220661829516482 a23.62316814351258,23.62316814351258 0 0,0 0.1616604154843424,-0.3731345276560819 l 2.397911417701011 1.0634998551943293" fill="#ff1902" stroke="none" /><path d="M 80.803312248108 91.48605970444005 l -25.792550357519453 -11.439277267637001 a49.21546948663186,49.21546948663186 0 0,0 0.35012748146969835,-0.7714594942620872 l 25.591820559086404 11.88155877074116" fill="#a0ff22" stroke="none" /><path d="M 81.26839172434947 90.50648371742162 l -19.945524959743707 -10.108751111138872 a43.360921603250404,43.360921603250404 0 0,0 0.3431512447592401,-0.6628589820273565 l 19.768564281824354 10.450582815426564" fill="#e3ff1b" stroke="none" /><line stroke="#e1ed5e" stroke-width="0.3" x1="26.266209847984243" x2="21.928928074336255" y1="57.711370442889674" y2="55.22380399835377" /><path d="M 25.398753493254645 57.213857153982495 a86.0,86.0 0 0,1 29.58750427330803,-30.492523968695096" fill="none" id="id23" stroke="none" /><text fill="#e1ed5e" style="font-size:6.75px; font-family:Arial;" text-anchor="middle"><textPath startOffset="21.46611528233685" xlink:href="#id23">November</textPath></text><path d="M 82.54541684631803 88.32363383020206 l -16.55162918169946 -11.072328759192853 a40.91363584883821,40.91363584883821 0 0,0 0.39661977520770564,-0.5819905798075872 l 16.358584940823015 11.355597362270856" fill="#fffe18" stroke="none" /><path d="M 83.17141714833178 87.43820079747576 l -2.9089576699103854 -2.171409349209381 a24.63002111387308,24.63002111387308 0 0,0 0.25653229573296366,-0.33756643080687754 l 2.871149433953313 2.221160555897285" fill="#ff2703" stroke="none" /><path d="M 83.84228863543731 86.58626213691792 l -47.8928458777215 -39.75947246648533 a83.24580577902731,83.24580577902731 0 0,0 0.92477918856949,-1.0946468688948197 l 47.20135607566488 40.57797828500926" fill="#4cd9ff" stroke="none" /><path d="M 85.05521093208273 85.24692304244772 l -2.725789134351473 -2.69082264636816 a24.83020272559512,24.83020272559512 0 0,0 0.3028861434707368,-0.3015854541137741 l 2.6790671907134227 2.7373439511320434" fill="#ff2a04" stroke="none" /><path d="M 86.10567301691215 84.25364557470407 l -5.138582313669457 -5.823523402974814 a28.766495542994402,28.766495542994402 0 0,0 0.374109920190082,-0.32442443624846706 l 5.037578594832602 5.911112832642962" fill="#ff6108" stroke="none" /><path d="M 86.37877921826538 84.01681056812374 l -4.0556899034526595 -4.758961112410426 a27.252705931227098,27.252705931227098 0 0,0 0.3596610498242543,-0.30120578592974256 l 3.973171316669295 4.828068055733981" fill="#ff4c07" stroke="none" /><path d="M 86.65592168130627 83.78471172551755 l -1.6448904527766122 -1.998817170785889 a23.588616364752443,23.588616364752443 0 0,0 0.31574666155703424,-0.2553118416039853 l 1.6102403926550775 2.0268351096540087" fill="#ff1802" stroke="none" /><path d="M 86.93701828274178 83.55741782278169 l -1.618271544923756 -2.0369440483338384 a23.601527214763006,23.601527214763006 0 0,0 0.32026985260601387,-0.249975699995217 l 1.5829691371583163 2.064498137552277" fill="#ff1802" stroke="none" /><path d="M 87.22198572758235 83.33499621200491 l -3.016517080948859 -3.93412211857338 a25.957488491515086,25.957488491515086 0 0,0 0.3569202209855862,-0.26882491071415415 l 2.948350706204883 3.9854636187933883" fill="#ff3a05" stroke="none" /><line stroke="#e1ed5e" stroke-width="0.3" x1="56.762969772571076" x2="54.21961505331055" y1="26.818313649435495" y2="22.513508569990535" /><path d="M 56.25429882871897 25.957352633546506 a86.0,86.0 0 0,1 42.265352541879196,-11.944610805530505" fill="none" id="id24" stroke="none" /><text fill="#e1ed5e" style="font-size:6.75px; font-family:Arial;" text-anchor="middle"><textPath startOffset="22.20632615414155" xlink:href="#id24">December</textPath></text><path d="M 89.3179101791058 81.91981866633112 l -2.469366526984428 -4.179574908632738 a25.854546061318555,25.854546061318555 0 0,0 0.38511364231458717,-0.223082678994212 l 2.3970561522045206 4.221461745016997" fill="#ff3805" stroke="none" /><path d="M 89.94658935756843 81.56283822128135 l -7.4226556111454265 -13.612564650726535 a36.50476483832884,36.50476483832884 0 0,0 0.5542726235247856,-0.29607323981039646 l 7.187237941092335 13.73831661703868" fill="#ffc712" stroke="none" /><path d="M 90.58718382345135 81.22770947309562 l -7.669883640318302 -15.296302541456756 a38.111516195118384,38.111516195118384 0 0,0 0.5889658125292095,-0.2890029663576416 l 7.405446560778667 15.426060667949228" fill="#ffdb14" stroke="none" /><path d="M 90.91171255644093 81.06846463323043 l -1.130845311315961 -2.355629499889565 a23.613006211028832,23.613006211028832 0 0,0 0.36793762518887185,-0.17275164853109634 l 1.0901294748274808 2.3747461310606686" fill="#ff1802" stroke="none" /><path d="M 91.90106846888425 80.62456947434976 l -1.557629113191459 -3.726384715245712 a25.03883046193802,25.03883046193802 0 0,0 0.39909049725011797,-0.16279903439393692 l 1.4932547463529606 3.7526446358232257" fill="#ff2d04" stroke="none" /><path d="M 93.25333710446033 80.11325718540243 l -0.8496464505263391 -2.504453046872062 a23.64465199126062,23.64465199126062 0 0,0 0.38655310431904727,-0.12744048095606092 l 0.8064105239648826 2.518707252087357" fill="#ff1902" stroke="none" /><path d="M 93.59665428221793 80.00007090966166 l -0.42704155315299774 -1.3338028521512 a22.400497960200585,22.400497960200585 0 0,0 0.3682371216392727,-0.11441306617978016 l 0.4040190588029963 1.3409560532135052" fill="#ff0701" stroke="none" /></svg>