<?xml version="1.0" encoding="utf-8" ?>
<svg baseProfile="full" height="200mm" version="1.1" viewBox="0,0,200,200" width="200mm" xmlns="http://www.w3.org/2000/svg" xmlns:ev="http://www.w3.org/2001/xml-events" xmlns:xlink="http://www.w3.org/1999/xlink"><defs /><rect fill="#1a1a1a" height="200" width="200" x="0" y="0" /><text alignment-baseline="middle" fill="#e1ed5e" style="dominant-baseline: central; font-size:9.0px; font-family:Arial;" text-anchor="middle" x="100.0" y="100.0">2024</text><line stroke="#e1ed5e" stroke-width="0.3" x1="100.0" x2="100.0" y1="15.0" y2="10.0" /><path d="M 100.0 14.0 a86.0,86.0 0 0,1 42.35913384403234,11.155469271406648" fill="none" id="id25" stroke="none" /><text fill="#e1ed5e" style="font-size:6.75px; font-family:Arial;" text-anchor="middle"><textPath startOffset="22.145653131862478" xlink:href="#id25">January</textPath></text><path d="M 100.0 79.0 l 0.0 -8.171738837173372 a29.171738837173372,29.171738837173372 0 0,0 0.5007716883971218,0.004298522666013145 l -0.14027876354826707 8.170534712701794" fill="#ff5407" stroke="none" /><path d="M 100.36049292484886 79.00309439819443 l 0.18312102974880104 -10.665881936387798 a31.66745381018825,31.66745381018825 0 0,0 0.543453749070077,0.01399744081288374 l -0.3661880928896194 10.66116677822487" fill="#ff770a" stroke="none" /><path d="M 100.72087961077811 79.0123766808444 l 0.3839860924904182 -11.179336117281155 a32.1859287206013,32.1859287206013 0 0,0 0.5520258283951558,0.023706364292237325 l -0.5758376814864102 11.171097184563086" fill="#ff7e0b" stroke="none" /><path d="M 102.15924093988457 79.11130261209362 l 4.658457781967869 -45.06635322830921 a66.30648322486654,66.30648322486654 0 0,0 1.131201544313272,0.1267534925009315 l -5.431395227881938 44.97974397530131" fill="#37ff73" stroke="none" /><path d="M 102.51750503828377 79.15144685158666 l 0.349727646505461 -2.8962466071604123 a23.917285353923823,23.917285353923823 0 0,0 0.4071885692473482,0.05271871248822648 l -0.39939403764360093 2.889816298471789" fill="#ff0801" stroke="none" /><path d="M 102.87502721639298 79.19773525538626 l 0.634853432236342 -4.5934831837786465 a25.637146389761647,25.637146389761647 0 0,0 0.4354345943375539,0.06399389035384462 l -0.713613132181578 4.58190822012592" fill="#ff2103" stroke="none" /><path d="M 104.29559338865022 79.4440306129975 l 5.907241320554565 -28.268288164283632 a49.878912994748354,49.878912994748354 0 0,0 0.8366298940445062,0.18233959145152087 l -6.391633631218205 28.162717114698392" fill="#a2ff22" stroke="none" /><path d="M 105.3480935250658 79.69241777938227 l 1.3615805670333243 -5.170143189424558 a26.346427053619635,26.346427053619635 0 0,0 0.43637034991268053,0.11893467932145471 l -1.4501323178806977 5.146008015958961" fill="#ff2b04" stroke="none" /><path d="M 106.72888874123014 80.10723608172694 l 19.498266562602325 -57.643160477415876 a81.85159282033146,81.85159282033146 0 0,0 1.3271426144878231,0.4616490928760746 l -20.484914949135167 57.29995295197121" fill="#4ae6ff" stroke="none" /><path d="M 110.02825361518725 81.54914285379988 l 8.221629960820056 -15.12687310642743 a38.21677929203402,38.21677929203402 0 0,0 0.5737172277033009,0.3182312750634717 l -8.480091376679457 14.983508915930813" fill="#ffcf13" stroke="none" /><path d="M 110.34350942703115 81.72400993836675 l 3.491486667073109 -6.169122392927363 a28.088621180826856,28.088621180826856 0 0,0 0.4175942428604821,0.2410981485275373 l -3.596873377793988 6.108277347123654" fill="#ff4406" stroke="none" /><line stroke="#e1ed5e" stroke-width="0.3" x1="143.13028292997686" x2="145.6673583964461" y1="26.7553504044142" y2="22.446841604673864" /><path d="M 143.63769802327073 25.89364864446614 a86.0,86.0 0 0,1 29.32050498858742,28.57503671076993" fill="none" id="id26" stroke="none" /><text fill="#e1ed5e" style="font-size:6.75px; font-family:Arial;" text-anchor="middle"><textPath startOffset="20.669276256404974" xlink:href="#id26">February</textPath></text><path d="M 112.16784306229584 82.88440491214696 l 3.742988426572593 -5.264981969257014 a27.459875966151195,27.459875966151195 0 0,0 0.3818478683281731,0.27642840940168606 l -3.832817305274734 5.199952788482253" fill="#ff3b05" stroke="none" /><path d="M 112.7482090630111 83.31218511350987 l 3.8897015082427466 -5.091744135385605 a27.40746721907023,27.40746721907023 0 0,0 0.3714234577754012,0.2888211273008519 l -3.976534910653374 5.024221956463962" fill="#ff3b05" stroke="none" /><path d="M 113.86319453409587 84.22622945171908 l 4.457850259446328 -5.0722152789646975 a27.752762158688,27.752762158688 0 0,0 0.3551494187758218,0.31757680022932905 l -4.544264705045525 4.994942948851982" fill="#ff4006" stroke="none" /><path d="M 114.13192950727249 84.46653392183569 l 8.947613421518017 -9.834994541414382 a34.296123629486154,34.296123629486154 0 0,0 0.43208253674750874,0.3999291453957754 l -9.115125729579493 9.679947649886232" fill="#ff9b0e" stroke="none" /><path d="M 114.65682725009322 84.96080404539774 l 9.768040095397886 -10.022869655243175 a34.99544652489856,34.99544652489856 0 0,0 0.4266246223349456,0.42297827995205944 l -9.938656637862794 9.853711365062457" fill="#ffa40f" stroke="none" /><path d="M 114.91283532996326 85.21462403516908 l 9.166335550049233 -9.087991272522627 a33.90787716030579,33.90787716030579 0 0,0 0.4062699732614222,0.41686878299740215 l -9.320992324461466 8.929299797457483" fill="#ff960d" stroke="none" /><path d="M 115.16444852881244 85.47280134310134 l 9.67538083548536 -9.26879597442593 a34.39864071938686,34.39864071938686 0 0,0 0.4048296848189907,0.4299150963382918 l -9.833066354040609 9.101339418143143" fill="#ff9c0e" stroke="none" /><path d="M 115.8921839302757 86.27271002978787 l 9.775177618986756 -8.443565609036527 a33.91696162713368,33.91696162713368 0 0,0 0.3768100731871881,0.44388131873905845 l -9.918682255681057 8.274517507847916" fill="#ff960d" stroke="none" /><path d="M 116.1254893667686 86.54754324733833 l 10.744139177135736 -8.963143030118163 a34.991942668408086,34.991942668408086 0 0,0 0.38083427608972636,0.46455589404234493 l -10.89642027246409 8.777384854377322" fill="#ffa40f" stroke="none" /><path d="M 116.35404254752997 86.82634096563983 l 5.0034067480151725 -4.030390303620917 a27.42480545118724,27.42480545118724 0 0,0 0.2921833148835687,0.3691640734795546 l -5.0718564935403005 3.9439062862266847" fill="#ff3b05" stroke="none" /><path d="M 116.7966241395341 87.39550010848427 l 26.99655744938513 -20.258720003215572 a54.75247917244952,54.75247917244952 0 0,0 0.5576878437031236,0.7566106670348657 l -27.34034731267208 19.79230302691183" fill="#6cff28" stroke="none" /><path d="M 117.42321728460499 88.27688183743584 l 5.780181335643664 -3.8891639639179787 a27.96678495513975,27.96678495513975 0 0,0 0.2645865091688493,0.40061769774621536 l -5.846092283733237 3.789366387832705" fill="#ff4306" stroke="none" /><path d="M 117.62189284568427 88.57770195909679 l 18.90498681983312 -12.253984053044897 a43.52906238240603,43.52906238240603 0 0,0 0.4010525462432647,0.6305212157517592 l -19.112557057702272 11.927649162614465" fill="#edff1a" stroke="none" /><line stroke="#e1ed5e" stroke-width="0.3" x1="172.87174338648825" x2="177.1583165268699" y1="56.24261187166439" y2="53.66864786411523" /><path d="M 173.72905801456457 55.72781907015455 a86.0,86.0 0 0,1 12.242430191666344,42.057860355516425" fill="none" id="id27" stroke="none" /><text fill="#e1ed5e" style="font-size:6.75px; font-family:Arial;" text-anchor="middle"><textPath startOffset="22.145653131862474" xlink:href="#id27">March</textPath></text><path d="M 118.36410011445183 89.81374322990088 l 21.35870396333574 -11.847313045078433 a45.424435743359545,45.424435743359545 0 0,0 0.3723822787770694,0.6851414506596477 l -21.55893159172815 11.478916760944182" fill="#d6ff1c" stroke="none" /><path d="M 118.53625476483649 90.13048839642627 l 5.715833159752523 -3.0433592119851616 a27.47555279519065,27.47555279519065 0 0,0 0.21809299768624707,0.41822207970301895 l -5.767234226413715 2.9447908891776446" fill="#ff3c05" stroke="none" /><path d="M 119.4528033332814 92.08871423366111 l 42.08792134524714 -17.116791208379393 a66.43542301371215,66.43542301371215 0 0,0 0.4205720554585202,1.060116317756259 l -42.375552075671784 16.39177387340957" fill="#37ff75" stroke="none" /><path d="M 119.71291397450082 92.76114493625339 l 6.064451254896195 -2.2269505022004963 a27.46040846713759,27.46040846713759 0 0,0 0.15869478581407997,0.4438975599092716 l -6.101786210754217 2.122517985910308" fill="#ff3b05" stroke="none" /><path d="M 119.83427380445688 93.10060997987247 l 12.076811059467046 -4.200941789960042 a33.78660538566426,33.78660538566426 0 0,0 0.18584978464885094,0.5494318649717437 l -12.147146265688262 3.9930082505141367" fill="#ff940d" stroke="none" /><path d="M 119.94978838288452 93.4421083053983 l 2.291340751614375 -0.7532092168659713 a23.41196321787472,23.41196321787472 0 0,0 0.12222748769543312,0.38287586433792475 l -2.3039329550870655 0.7137643188366595" fill="#ff0000" stroke="none" /><path d="M 120.35273937422433 94.82641323984039 l 6.191903272324054 -1.5739575985753798 a27.388819034526687,27.388819034526687 0 0,0 0.11191915748335333,0.4566683550382124 l -6.218009956323699 1.4674334189290725" fill="#ff3a05" stroke="none" /><path d="M 120.43855184770803 95.1765574152323 l 21.899265785001294 -5.1681670966510715 a43.50083983012712,43.50083983012712 0 0,0 0.1652806919792282,0.7282572251947798 l -21.984757338538188 4.7914755375172655" fill="#edff1a" stroke="none" /><path d="M 120.51834098615036 95.52812308129327 l 12.59156024328321 -2.74427194968885 a33.88714157189558,33.88714157189558 0 0,0 0.11899597110144501,0.5694387987468768 l -12.636813925209022 2.527716699656569" fill="#ff950d" stroke="none" /><path d="M 120.7213421655516 96.59031103205396 l 18.41194672081066 -3.0296788263419545 a39.6595481145915,39.6595481145915 0 0,0 0.10477393104134354,0.6727237970321962 l -18.461242143990273 2.713166847378317" fill="#ffe115" stroke="none" /><path d="M 120.82617615685814 97.30363454192243 l 4.916538081685298 -0.6365442871956931 a25.957573533314783,25.957573533314783 0 0,0 0.053420579708154094,0.44239903329994407 l -4.926740747653115 0.552051576972336" fill="#ff2603" stroke="none" /><path d="M 120.9064616781168 98.02013634271609 l 6.406992076870063 -0.606748811004142 a27.435657821289965,27.435657821289965 0 0,0 0.04037794248383173,0.46925289718145985 l -6.416463642051635 0.4966748664470202" fill="#ff3b05" stroke="none" /><path d="M 120.99303781780057 99.45929381324524 l 56.419194145520954 -1.4531583085290385 a77.43790514450048,77.43790514450048 0 0,0 0.02282046537346443,1.3291777014395285 l -56.43582604249308 0.4844336911204435" fill="#45ffec" stroke="none" /><line stroke="#e1ed5e" stroke-width="0.3" x1="184.99686870605535" x2="189.99668451229388" y1="99.2704041080226" y2="99.22748670261217" /><path d="M 185.99683186730306 99.26182062694052 a86.0,86.0 0 0,1 -10.086455211305974,41.156179273409016" fill="none" id="id28" stroke="none" /><text fill="#e1ed5e" style="font-size:6.75px; font-family:Arial;" text-anchor="middle"><textPath startOffset="21.40746469413373" xlink:href="#id28">April</textPath></text><path d="M 120.99922638620191 100.18025310272382 l 5.338445220292427 0.04582413165997259 a26.33864188919855,26.33864188919855 0 0,0 -0.007761832710927811,0.4520878427689443 l -5.336871955982831 -0.13745889039798792" fill="#ff2b04" stroke="none" /><path d="M 120.82617615685814 102.69636545807757 l 12.825326746740304 1.660495319352279 a33.93237220567994,33.93237220567994 0 0,0 -0.0797499349828515,0.5770308021502274 l -12.79493229520224 -1.8804144297025913" fill="#ff960d" stroke="none" /><path d="M 120.7213421655516 103.40968896794604 l 19.842243861492303 3.2650336765492165 a41.1090796996762,41.1090796996762 0 0,0 -0.12055762743004018,0.6953443580737051 l -19.783271416570027 -3.60517106754351" fill="#fff316" stroke="none" /><path d="M 120.51834098615036 104.47187691870673 l 12.588126345998711 2.7435235477581963 a33.883627065385376,33.883627065385376 0 0,0 -0.12874025765945307,0.5672533294192458 l -12.539175226781595 -2.9592112111164592" fill="#ff950d" stroke="none" /><path d="M 119.94978838288452 106.5578916946017 l 49.42427312873207 16.246740268217994 a73.02610252216134,73.02610252216134 0 0,0 -0.40169425938384384,1.1875377014760182 l -49.13809344777586 -17.09277964416817" fill="#3fffbe" stroke="none" /><line stroke="#e1ed5e" stroke-width="0.3" x1="174.33088141563837" x2="178.70328620479359" y1="141.23008692659167" y2="143.65538615756765" /><path d="M 175.20536237346943 141.71514677278685 a86.0,86.0 0 0,1 -30.301960400862466,31.631185727798858" fill="none" id="id29" stroke="none" /><text fill="#e1ed5e" style="font-size:6.75px; font-family:Arial;" text-anchor="middle"><textPath startOffset="22.145653131862474" xlink:href="#id29">May</textPath></text><line stroke="#e1ed5e" stroke-width="0.3" x1="143.1302829299769" x2="145.66735839644613" y1="173.24464959558577" y2="177.55315839532614" /><path d="M 143.63769802327073 174.10635135553383 a86.0,86.0 0 0,1 -40.68552437913181,11.842963189579606" fill="none" id="id30" stroke="none" /><text fill="#e1ed5e" style="font-size:6.75px; font-family:Arial;" text-anchor="middle"><textPath startOffset="21.407464694133747" xlink:href="#id30">June</textPath></text><path d="M 110.34350942703117 118.27599006163325 l 3.1805142429224187 5.61966391625526 a27.45726671131786,27.45726671131786 0 0,0 -0.4121934718138645,0.22863677047536898 l -3.0835765829524595 -5.673433602163773" fill="#ff3b05" stroke="none" /><path d="M 110.02825361518725 118.45085714620011 l 2.7668960675977616 5.090777122380931 a26.794111282901376,26.794111282901376 0 0,0 -0.4060088514894719,0.21617684487863956 l -2.679098400321736 -5.137524434982139" fill="#ff3204" stroke="none" /><path d="M 108.4095320186766 119.2426549942271 l 2.5844686600986555 5.913770071773523 a27.453848054985208,27.453848054985208 0 0,0 -0.4334634793635036,0.18501978400853689 l -2.482570105564721 -5.957264505441463" fill="#ff3b05" stroke="none" /><path d="M 108.07796709384702 119.3841803445677 l 4.101316064538432 9.841665523203373 a31.662043600166477,31.662043600166477 0 0,0 -0.5034951528509213,0.20476709541165247 l -3.9317664504970695 -9.910619875194316" fill="#ff770a" stroke="none" /><path d="M 107.407793817531 119.65005319985036 l 3.6547026466026034 9.694532974908165 a31.36054154166981,31.36054154166981 0 0,0 -0.505368927033451,0.18557847009571501 l -3.4877445679150254 -9.755842294012604" fill="#ff730a" stroke="none" /><path d="M 100.72087961077811 120.9876233191556 l 1.5633884517568069 45.516348966470254 a66.54319056333871,66.54319056333871 0 0,0 -1.141965710394314,0.029412985868510544 l -0.7818094272917493 -45.53647966968881" fill="#37ff76" stroke="none" /><line stroke="#e1ed5e" stroke-width="0.3" x1="101.45913802915013" x2="101.54496967792366" y1="184.9874750549273" y2="189.98673829345242" /><path d="M 101.47630435890484 185.9873277026323 a86.0,86.0 0 0,1 -42.54439059252881,-10.42667462771756" fill="none" id="id31" stroke="none" /><text fill="#e1ed5e" style="font-size:6.75px; font-family:Arial;" text-anchor="middle"><textPath startOffset="22.145653131862474" xlink:href="#id31">July</textPath></text><path d="M 96.05791012581884 120.62667999033965 l -2.872849636977496 15.031963251372312 a36.30402509888459,36.30402509888459 0 0,0 -0.6111238315156194,-0.12224188182422616 l 3.1304699540240732 -14.980431972885224" fill="#ffb610" stroke="none" /><path d="M 95.00130118170881 120.39639698878247 l -1.4637177717858738 5.972468003800756 a27.149214890688533,27.149214890688533 0 0,0 -0.451704379804443,-0.11482148697005369 l 1.5660274448156954 -5.94646128499544" fill="#ff3705" stroke="none" /><path d="M 94.30408787586889 120.21278271476187 l -1.5745983182528889 5.587693941947914 a26.80531510365512,26.80531510365512 0 0,0 -0.4418281637183958,-0.12860973918577437 l 1.6702864943528914 -5.559840508459623" fill="#ff3204" stroke="none" /><path d="M 93.61358852112213 120.00534299687104 l -4.887710311662672 15.310682936348426 a37.07192347132491,37.07192347132491 0 0,0 -0.604585279075796,-0.19873918982173946 l 5.149818328386211 -15.224522825124666" fill="#ffc011" stroke="none" /><path d="M 92.25597844496254 119.51999308798841 l -3.4027037084869853 8.577036155966274 a30.227347492562735,30.227347492562735 0 0,0 -0.48068037358036375,-0.19548852329981073 l 3.54943854325779 -8.517360376087172" fill="#ff6309" stroke="none" /><path d="M 90.6110303473126 118.78422872680471 l -2.886884827336728 5.77570350215304 a27.457000460824663,27.457000460824663 0 0,0 -0.41979502006516306,-0.21435032840321305 l 2.9856070691154732 -5.725295222076991" fill="#ff3b05" stroke="none" /><path d="M 90.28995756902619 118.62028667847754 l -2.4718653892386153 4.740127811533517 a26.34592650269243,26.34592650269243 0 0,0 -0.3992175462677125,-0.21256085736984012 l 2.55287175129289 -4.696996486441104" fill="#ff2b04" stroke="none" /><line stroke="#e1ed5e" stroke-width="0.3" x1="58.13341422392154" x2="55.67067388415222" y1="173.97424548756322" y2="178.32567169271397" /><path d="M 57.64086615596768 174.84453072859336 a86.0,86.0 0 0,1 -31.369924170532247,-30.572349798747897" fill="none" id="id32" stroke="none" /><text fill="#e1ed5e" style="font-size:6.75px; font-family:Arial;" text-anchor="middle"><textPath startOffset="22.145653131862474" xlink:href="#id32">August</textPath></text><path d="M 88.4268655584334 117.5232005979908 l -2.9405378667201076 4.452349116368627 a26.33574508383256,26.33574508383256 0 0,0 -0.37510091001454066,-0.2523846324795177 l 3.0165350648316536 -4.401214809831988" fill="#ff2b04" stroke="none" /><path d="M 88.1277618465304 117.32195027204791 l -3.668511678968145 5.352468174414303 a27.488982470067526,27.488982470067526 0 0,0 -0.38694657889477485,-0.27011876385430306 l 3.7598533490366854 -5.28870459475487" fill="#ff3c05" stroke="none" /><path d="M 87.54013794807813 116.9041958592261 l -3.2401005695276206 4.395818701896203 a26.46090411567477,26.46090411567477 0 0,0 -0.3633296482130296,-0.2726493415249209 l 3.3150832066514164 -4.339550333107267" fill="#ff2d04" stroke="none" /><path d="M 86.68645165197938 116.24036423190432 l -4.118480110454502 5.023876079255675 a27.49624578352195,27.49624578352195 0 0,0 -0.36246031176531973,-0.30237728342233366 l 4.204114756381715 -4.952436611921471" fill="#ff3c05" stroke="none" /><path d="M 86.13680546590413 115.77377054828092 l -4.282738280611436 4.8729699919131795 a27.487502117325352,27.487502117325352 0 0,0 -0.3517549116281887,-0.31454141100634647 l 4.365758219062996 -4.798733051023451" fill="#ff3c05" stroke="none" /><path d="M 85.60350026404147 115.28858382429668 l -7.304235004440036 7.756844454268204 a31.65459923637668,31.65459923637668 0 0,0 -0.392407768101698,-0.375917765218596 l 7.436315258407048 -7.6303145587440255" fill="#ff770a" stroke="none" /><path d="M 85.08716467003676 114.78537596483092 l -4.9784643648589775 4.935913643065391 a28.010588486280575,28.010588486280575 0 0,0 -0.33561113193720765,-0.3443665870945882 l 5.062462297946994 -4.849724363903066" fill="#ff4306" stroke="none" /><path d="M 84.83555147118756 114.52719865689866 l -4.670282394740398 4.474024888099466 a27.46749073025664,27.46749073025664 0 0,0 -0.3232585759945941,-0.3432894055262575 l 4.746396804471245 -4.393194022628719" fill="#ff3c05" stroke="none" /><path d="M 84.3458050057657 113.99807769240083 l -3.8904319137221033 3.478848206843955 a26.218988917555663,26.218988917555663 0 0,0 -0.2971347274557393,-0.3380847755750316 l 3.949577705136435 -3.4115511534576233" fill="#ff2904" stroke="none" /><path d="M 83.64595745247003 113.17365903436017 l -8.30612612657784 6.690827247753114 a31.66578175709097,31.66578175709097 0 0,0 -0.33736658947806114,-0.4262516649085695 l 8.419759146697464 -6.5472556389298635" fill="#ff770a" stroke="none" /><line stroke="#e1ed5e" stroke-width="0.3" x1="26.387840678322732" x2="22.057713659400548" y1="142.50000000000003" y2="145.00000000000006" /><path d="M 25.521815274538298 143.00000000000003 a86.0,86.0 0 0,1 -11.493303480769221,-40.785679425670985" fill="none" id="id33" stroke="none" /><text fill="#e1ed5e" style="font-size:6.75px; font-family:Arial;" text-anchor="middle"><textPath startOffset="21.40746469413373" xlink:href="#id33">September</textPath></text><path d="M 81.63589988554817 110.18625677009913 l -5.661192299835208 3.140167938076546 a27.473774241896095,27.473774241896095 0 0,0 -0.22522561901718974,-0.4143897713014753 l 5.714263268467727 -3.0425233333004837" fill="#ff3c05" stroke="none" /><path d="M 81.4637452351635 109.86951160357371 l -5.689079204084641 3.0291142375145577 a27.44524283904507,27.44524283904507 0 0,0 -0.21785240601389852,-0.41776071344809507 l 5.740239679073489 -2.93100728096196" fill="#ff3b05" stroke="none" /><path d="M 80.5471966667186 107.91128576633889 l -6.003155677286344 2.4414311525772625 a27.48062220458113,27.48062220458113 0 0,0 -0.1739671585063028,-0.43851088319492604 l 6.04418151075877 -2.338019252168771" fill="#ff3c05" stroke="none" /><path d="M 80.28708602549918 107.23885506374661 l -11.055284394834578 4.059653561428053 a32.77710066567695,32.77710066567695 0 0,0 -0.1894201601542433,-0.5298419003419501 l 11.123344725032764 -3.8692767047051815" fill="#ff860c" stroke="none" /><path d="M 80.16572619554312 106.89939002012753 l -6.098124797027579 2.1212443561533445 a27.456531859956634,27.456531859956634 0 0,0 -0.15102998585179792,-0.4464933169010487 l 6.133640204451744 -2.016249364778134" fill="#ff3b05" stroke="none" /><path d="M 80.05021161711548 106.5578916946017 l -4.506295046998755 1.4813086883413351 a25.743518786803847,25.743518786803847 0 0,0 -0.13439990471832472,-0.4210057872921837 l 4.531059667494334 -1.4037338673577597" fill="#ff2303" stroke="none" /><path d="M 79.94057633289273 106.21446072829308 l -6.149433325337479 1.9051101634704881 a27.437777175215814,27.437777175215814 0 0,0 -0.13552129616827616,-0.4511063190313696 l 6.1812309415093845 -1.799266240848395" fill="#ff3b05" stroke="none" /><path d="M 79.73907114497094 105.5222062557868 l -9.331755665599863 2.543411503133457 a30.672156216517944,30.672156216517944 0 0,0 -0.1340965041465172,-0.5091862680952901 l 9.374041650551112 -2.382844730665364" fill="#ff6909" stroke="none" /><path d="M 79.48165901384964 104.47187691870673 l -6.257653456034341 1.363826445529581 a27.404549113664785,27.404549113664785 0 0,0 -0.096232104069891,-0.46050545438825363 l 6.280143270928599 -1.2562045398559183" fill="#ff3b05" stroke="none" /><path d="M 79.407916724674 104.11899336999214 l -6.342812597824651 1.2687401603919914 a27.468459882051878,27.468459882051878 0 0,0 -0.08851869169129893,-0.463167199367613 l 6.3636575817981065 -1.159670395991064" fill="#ff3c05" stroke="none" /><path d="M 79.34024301695615 103.76489593502545 l -10.491475966690546 1.9118964105835754 a31.66425880426988,31.66425880426988 0 0,0 -0.09285948368733747,-0.5355888254610536 l 10.522750267870117 -1.7315145522019293" fill="#ff770a" stroke="none" /><path d="M 79.2786578344484 103.40968896794605 l -37.14169755112786 6.111652197964568 a58.64117412579398,58.64117412579398 0 0,0 -0.1549202304647183,-0.9946990118582614 l 37.241139273730845 -5.473165004174856" fill="#44ff2d" stroke="none" /><path d="M 79.13060592940153 102.33845913500099 l -6.454425260396959 0.7232318130702453 a27.494818680878414,27.494818680878414 0 0,0 -0.04853176893574081,-0.4695008399816084 l 6.465889421814365 -0.6123264508057055" fill="#ff3c05" stroke="none" /><line stroke="#e1ed5e" stroke-width="0.3" x1="15.003131293944662" x2="10.003315487706104" y1="100.72959589197737" y2="100.7725132973878" /><path d="M 14.003168132696942 100.73817937305945 a86.0,86.0 0 0,1 10.791469493833604,-42.45332614584628" fill="none" id="id34" stroke="none" /><text fill="#e1ed5e" style="font-size:6.75px; font-family:Arial;" text-anchor="middle"><textPath startOffset="22.145653131862435" xlink:href="#id34">October</textPath></text><path d="M 79.00696218219943 99.45929381324524 l -33.56894376681201 -0.8646169141917737 a54.58007665309437,54.58007665309437 0 0,0 0.032164072967520815,-0.9364218903675725 l 33.54915500684764 1.4407450691234847" fill="#6eff28" stroke="none" /><path d="M 79.03789590574601 98.7389718711861 l -33.96721660492123 -2.0433834029123967 a55.02862353397407,55.02862353397407 0 0,0 0.06481857946521283,-0.942447919701421 l 33.92713406429095 2.6261747467681427" fill="#69ff28" stroke="none" /><path d="M 79.0935383218832 98.0201363427161 l -20.36598090614036 -1.9286795662419964 a41.45710104434431,41.45710104434431 0 0,0 0.07317693096951254,-0.7079204263696288 l 20.329871582689183 2.2780045148945383" fill="#fff817" stroke="none" /><path d="M 79.17382384314186 97.30363454192245 l -6.436211053715582 -0.8332963783378347 a27.48993032182331,27.48993032182331 0 0,0 0.06460851432843998,-0.46747502498517135 l 6.420958022831934 0.9436597115230729" fill="#ff3c05" stroke="none" /><path d="M 79.2786578344484 96.59031103205396 l -50.145593955858196 -8.251438402799991 a71.81994518789847,71.81994518789847 0 0,0 0.21062116343306928,-1.2148069002858424 l 49.99655797493289 9.111038336006425" fill="#3effb1" stroke="none" /><path d="M 79.407916724674 95.88100663000787 l -6.35219054409238 -1.2706160122902381 a27.478023599767525,27.478023599767525 0 0,0 0.09649011248899667,-0.4617401180737734 l 6.329442720779017 1.3794725816494207" fill="#ff3c05" stroke="none" /><path d="M 79.64726062577567 94.8264132398404 l -6.207953617702635 -1.578037533606223 a27.405379815203563,27.405379815203563 0 0,0 0.11981438807512057,-0.45495474707850175 l 6.179949748822788 1.6843727850575092" fill="#ff3b05" stroke="none" /><path d="M 79.94057633289273 93.78553927170692 l -60.1782710013218 -18.643382184879226 a84.0,84.0 0 0,0 0.4385411368909713,-1.3737238652344332 l 59.84936514865357 19.67367508380505" fill="#4dd2ff" stroke="none" /><path d="M 80.9802524753101 91.09779779509293 l -21.702062563933953 -10.157661081299443 a44.96158588598528,44.96158588598528 0 0,0 0.3331883504226901,-0.6962355055928211 l 21.524494955551358 10.528709088957351" fill="#dbff1b" stroke="none" /><path d="M 81.1358732173502 90.77261029715801 l -5.795601643204806 -2.8349191849934186 a27.45180325119745,27.45180325119745 0 0,0 0.21069923954867303,-0.42153962092242947 l 5.746082490444389 2.9339906620796183" fill="#ff3b05" stroke="none" /><line stroke="#e1ed5e" stroke-width="0.3" x1="26.387840678322718" x2="22.05771365940052" y1="57.49999999999999" y2="54.99999999999999" /><path d="M 25.521815274538284 56.99999999999999 a86.0,86.0 0 0,1 29.574782752854787,-30.34633250058573" fill="none" id="id35" stroke="none" /><text fill="#e1ed5e" style="font-size:6.75px; font-family:Arial;" text-anchor="middle"><textPath startOffset="21.40746469413373" xlink:href="#id35">November</textPath></text><path d="M 82.576782715395 88.27688183743585 l -4.7408378300248515 -3.1898472689107344 a26.714076384646255,26.714076384646255 0 0,0 0.2592668066043131,-0.3782780191180792 l 4.685381286605225 3.2707600230988483" fill="#ff3104" stroke="none" /><path d="M 83.64595745247003 86.82634096563983 l -18.41268977131246 -14.831959513848568 a44.64348044673283,44.64348044673283 0 0,0 0.48587664077899145,-0.5926904993136696 l 18.15536631129484 15.145852294860731" fill="#dfff1b" stroke="none" /><path d="M 85.08716467003674 85.21462403516908 l -41.99115782115028 -41.63226119293488 a80.13123123356642,80.13123123356642 0 0,0 0.9768686974155331,-0.9685194424794112 l 41.27029720360477 42.34696064564296" fill="#48f7ff" stroke="none" /><path d="M 86.96720088162412 83.53348406188908 l -29.849838463751116 -37.71429578166066 a69.09761909511346,69.09761909511346 0 0,0 0.9364045354214817,-0.7281538305359431 l 29.198023983694387 38.221150663817404" fill="#3aff93" stroke="none" /><line stroke="#e1ed5e" stroke-width="0.3" x1="56.869717070023135" x2="54.33264160355391" y1="26.7553504044142" y2="22.446841604673864" /><path d="M 56.362301976729285 25.89364864446614 a86.0,86.0 0 0,1 42.16139366436587,-11.88097634709845" fill="none" id="id36" stroke="none" /><text fill="#e1ed5e" style="font-size:6.75px; font-family:Arial;" text-anchor="middle"><textPath startOffset="22.145653131862474" xlink:href="#id36">December</textPath></text><path d="M 89.65649057296885 81.72400993836675 l -5.552700566754708 -9.811089851963523 a32.273418632665944,32.273418632665944 0 0,0 0.48449441866757464,-0.2687408869190417 l 5.38346195993103 9.904963654315711" fill="#ff7f0b" stroke="none" /><path d="M 89.97174638481275 81.54914285379989 l -5.233269100365041 -9.628625709288617 a31.958902250061783,31.958902250061783 0 0,0 0.48427048243588916,-0.2578467552537094 l 5.067209802142589 9.717042932264901" fill="#ff7b0b" stroke="none" /><path d="M 91.26138138417902 80.90454125486306 l -24.08237371303549 -52.62433273946425 a78.8729740027947,78.8729740027947 0 0,0 1.2360018391065215,-0.5528479013236496 l 23.175458471073348 53.029984391697745" fill="#46fffb" stroke="none" /><path d="M 91.5904679813234 80.7573450057729 l -9.947897488344568 -22.76273624513497 a45.84155441602223,45.84155441602223 0 0,0 0.7237834068580475,-0.3089400975659546 l 9.555679006316089 22.93015099236033" fill="#d1ff1d" stroke="none" /><path d="M 94.30408787586887 79.78721728523814 l -1.7397306840456115 -6.17369045246324 a27.41413413141989,27.41413413141989 0 0,0 0.45405455848472875,-0.12375458900594662 l 1.6334947246262053 6.2026455356133265" fill="#ff3b05" stroke="none" /><path d="M 95.70440661134978 79.44403061299748 l -0.9444118271313455 -4.519352473753393 a25.616975252397015,25.616975252397015 0 0,0 0.43122337056134946,-0.08625675122711524 l 0.8666919710390193 4.534898621643375" fill="#ff2103" stroke="none" /><path d="M 96.41257539226777 79.30868818359171 l -3.8714884926758426 -22.329716817723213 a43.66284793022784,43.66284793022784 0 0,0 0.7396122518835532,-0.12170291459196951 l 3.4875987377392166 22.39288573081085" fill="#ebff1a" stroke="none" /><path d="M 99.27912038922189 79.0123766808444 l -0.22150088146036184 -6.448756485057399 a27.452559402598133,27.452559402598133 0 0,0 0.47112080492277997,-0.012134400754266327 l 0.11076676246683793 6.45160860316171" fill="#ff3b05" stroke="none" /></svg>