<?xml version="1.0" encoding="utf-8" ?>
<svg baseProfile="full" height="200mm" version="1.1" viewBox="0,0,200,200" width="200mm" xmlns="http://www.w3.org/2000/svg" xmlns:ev="http://www.w3.org/2001/xml-events" xmlns:xlink="http://www.w3.org/1999/xlink"><defs /><rect fill="#1a1a1a" height="200" width="200" x="0" y="0" /><text alignment-baseline="middle" fill="#e1ed5e" style="dominant-baseline: central; font-size:9.0px; font-family:Arial;" text-anchor="middle" x="100.0" y="100.0">2022</text><line stroke="#e1ed5e" stroke-width="0.3" x1="100.0" x2="100.0" y1="15.0" y2="10.0" /><path d="M 100.0 14.0 a86.0,86.0 0 0,1 42.46469731375804,11.215312516191453" fill="none" id="id1" stroke="none" /><text fill="#e1ed5e" style="font-size:6.75px; font-family:Arial;" text-anchor="middle"><textPath startOffset="22.20632615414155" xlink:href="#id1">January</textPath></text><line stroke="#e1ed5e" stroke-width="0.3" x1="143.23703022742887" x2="145.7803849466894" y1="26.81831364943548" y2="22.513508569990506" /><path d="M 143.74570117128098 25.957352633546492 a86.0,86.0 0 0,1 28.547481713284135,27.462654790039103" fill="none" id="id2" stroke="none" /><text fill="#e1ed5e" style="font-size:6.75px; font-family:Arial;" text-anchor="middle"><textPath startOffset="19.985693538727396" xlink:href="#id2">February</textPath></text><line stroke="#e1ed5e" stroke-width="0.3" x1="172.23445277983987" x2="176.4835382374775" y1="55.19839476539836" y2="52.563006222186495" /><path d="M 173.08426987136738 54.67131705675599 a86.0,86.0 0 0,1 12.851231095245387,41.99856678651699" fill="none" id="id3" stroke="none" /><text fill="#e1ed5e" style="font-size:6.75px; font-family:Arial;" text-anchor="middle"><textPath startOffset="22.20632615414155" xlink:href="#id3">March</textPath></text><line stroke="#e1ed5e" stroke-width="0.3" x1="184.98032266829074" x2="189.97916517819016" y1="98.17113171792111" y2="98.06355123074" /><path d="M 185.9800911702706 98.14961562048488 a86.0,86.0 0 0,1 -9.607161424134198,41.387399972396054" fill="none" id="id4" stroke="none" /><text fill="#e1ed5e" style="font-size:6.75px; font-family:Arial;" text-anchor="middle"><textPath startOffset="21.466115282336823" xlink:href="#id4">April</textPath></text><line stroke="#e1ed5e" stroke-width="0.3" x1="174.80103733775053" x2="179.2010983576182" y1="140.37084112569926" y2="142.7455964860345" /><path d="M 175.68104954172406 140.8457921977663 a86.0,86.0 0 0,1 -30.038265399797805,32.042727171017184" fill="none" id="id5" stroke="none" /><text fill="#e1ed5e" style="font-size:6.75px; font-family:Arial;" text-anchor="middle"><textPath startOffset="22.206326154141568" xlink:href="#id5">May</textPath></text><line stroke="#e1ed5e" stroke-width="0.3" x1="143.8653032363475" x2="146.44561519142675" y1="172.8068346515853" y2="177.08958963109032" /><path d="M 144.38136562736335 173.6633856474863 a86.0,86.0 0 0,1 -40.68145358897372,12.25698825130547" fill="none" id="id6" stroke="none" /><text fill="#e1ed5e" style="font-size:6.75px; font-family:Arial;" text-anchor="middle"><textPath startOffset="21.466115282336833" xlink:href="#id6">June</textPath></text><line stroke="#e1ed5e" stroke-width="0.3" x1="102.19456741930631" x2="102.32365962044197" y1="184.97166512339345" y2="189.96999836594603" /><path d="M 102.22038585953345 185.97133177190398 a86.0,86.0 0 0,1 -42.740103519485714,-10.115201625700543" fill="none" id="id7" stroke="none" /><text fill="#e1ed5e" style="font-size:6.75px; font-family:Arial;" text-anchor="middle"><textPath startOffset="22.20632615414155" xlink:href="#id7">July</textPath></text><path d="M 90.10565033884886 118.52300852407294 l -11.579996788463028 21.678673845905173 a45.577657035159945,45.577657035159945 0 0,0 -0.6888242205445018,-0.3756018867057954 l 11.95144382087617 -21.476131307439612" fill="#d3ff1c" stroke="none" /><line stroke="#e1ed5e" stroke-width="0.3" x1="58.666819895761336" x2="56.23545636021788" y1="174.27360380694188" y2="178.64263932499728" /><path d="M 58.180547188652646 175.14741091055294 a86.0,86.0 0 0,1 -31.652253787137756,-30.449443065178592" fill="none" id="id8" stroke="none" /><text fill="#e1ed5e" style="font-size:6.75px; font-family:Arial;" text-anchor="middle"><textPath startOffset="22.20632615414155" xlink:href="#id8">August</textPath></text><path d="M 88.24862548938628 117.40417183066458 l -20.38817239407822 30.195553323508026 a57.43417371209988,57.43417371209988 0 0,0 -0.8145892013105679,-0.5602818804823066 l 20.904918480011677 -29.84013065366062" fill="#4fff2b" stroke="none" /><path d="M 87.07902340077011 116.55440617244103 l -6.597353214454069 8.452554954835348 a31.72244163895421,31.72244163895421 0 0,0 -0.4275618770769943,-0.3396810137882048 l 6.741872584248421 -8.337740027042011" fill="#ff790b" stroke="none" /><path d="M 85.44109423537348 115.13401014063109 l -19.84019151289324 20.623916687319245 a49.617811565417895,49.617811565417895 0 0,0 -0.6104173324254563,-0.5974218355963451 l 20.192258797694493 -20.27934474880033" fill="#a4ff21" stroke="none" /><path d="M 84.9287848128048 114.62390073753433 l -19.163752372635138 18.594971206715247 a47.70247852125806,47.70247852125806 0 0,0 -0.5667359940018991,-0.5942204239303452 l 19.480994918015995 -18.2623436662024" fill="#baff1f" stroke="none" /><path d="M 84.19399662182784 113.82643327865904 l -6.708030193768075 5.867905357621787 a29.912349991248696,29.912349991248696 0 0,0 -0.33566996817991457,-0.3904600071665079 l 6.808042671518769 -5.751568251293748" fill="#ff6008" stroke="none" /><line stroke="#e1ed5e" stroke-width="0.3" x1="26.63291911575756" x2="22.317208475507996" y1="142.92168965132927" y2="145.44649492493687" /><path d="M 25.769776987707644 143.4266507060508 a86.0,86.0 0 0,1 -11.730757126820373,-40.83630448921669" fill="none" id="id9" stroke="none" /><text fill="#e1ed5e" style="font-size:6.75px; font-family:Arial;" text-anchor="middle"><textPath startOffset="21.46611528233685" xlink:href="#id9">September</textPath></text><path d="M 79.67330655649465 105.27499134158121 l -28.330592914171284 7.35208767424319 a50.269022669680155,50.269022669680155 0 0,0 -0.21014530627824424,-0.8394260376646776 l 28.452949534744587 -6.863333797181121" fill="#9cff22" stroke="none" /><path d="M 79.58551787078972 104.9243191809786 l -2.198937589598848 0.5304210257061928 a23.262006407475894,23.262006407475894 0 0,0 -0.09054396376508948,-0.39006102614431215 l 2.2077421192944926 -0.4924913422133063" fill="#ff0000" stroke="none" /><line stroke="#e1ed5e" stroke-width="0.3" x1="15.007084014347285" x2="10.007500721073583" y1="101.09737516637583" y2="101.16192664675087" /><path d="M 14.007167355692545 101.11028546245083 a86.0,86.0 0 0,1 10.666146001902534,-42.60595125391555" fill="none" id="id10" stroke="none" /><text fill="#e1ed5e" style="font-size:6.75px; font-family:Arial;" text-anchor="middle"><textPath startOffset="22.20632615414155" xlink:href="#id10">October</textPath></text><path d="M 79.03285615573316 98.82574320788736 l -4.680497654333579 -0.2621294632159131 a25.687832137321898,25.687832137321898 0 0,0 0.028525003039056595,-0.44126917154900275 l 4.675292060290109 0.34265769901792764" fill="#ff2403" stroke="none" /><path d="M 79.05617556472873 98.46500227214037 l -38.580624834336035 -2.82761974266634 a59.68410585779259,59.68410585779259 0 0,0 0.08391447777252876,-1.023969176402875 l 38.52623587274401 3.4913028362769936" fill="#38ff2e" stroke="none" /><path d="M 79.12142395522702 97.74499172005258 l -12.499171733987735 -1.3499836239877825 a33.57186341879171,33.57186341879171 0 0,0 0.06699928309015653,-0.5740089417437941 l 12.474082097893989 1.5649363040564384" fill="#ff930d" stroke="none" /><path d="M 79.62865764111835 94.90015583598534 l -19.984440825784223 -5.002985670801269 a41.60115872327365,41.60115872327365 0 0,0 0.17988275288184805,-0.6931616256467864 l 19.895361741032065 5.346243721996919" fill="#fffb17" stroke="none" /><path d="M 80.02781315780177 93.51064311812611 l -16.91963719797245 -5.497523378736187 a38.79035936148463,38.79035936148463 0 0,0 0.21180036095015672,-0.6332561207821823 l 16.82249954325052 5.787952602440691" fill="#ffd714" stroke="none" /><path d="M 80.2630227832202 92.82701384747504 l -17.530912781618884 -6.371238778994328 a39.652763509348674,39.652763509348674 0 0,0 0.2386632076577034,-0.6394987406411243 l 17.418644985459554 6.672060656664794" fill="#ffe215" stroke="none" /><path d="M 81.43458229118936 90.18545643968196 l -41.79118018463089 -22.09276218786657 a68.2714806444003,68.2714806444003 0 0,0 0.5581742990955427,-1.0342122042396544 l 41.40469778631687 22.808855375438696" fill="#39ff8a" stroke="none" /><path d="M 81.6062741919709 89.86733742301443 l -9.401713543773253 -5.17917859485246 a31.733876675113578,31.733876675113578 0 0,0 0.2676863697697494,-0.4761841825725809 l 9.311169532711073 5.340246287359825" fill="#ff7a0b" stroke="none" /><line stroke="#e1ed5e" stroke-width="0.3" x1="26.266209847984243" x2="21.928928074336255" y1="57.711370442889674" y2="55.22380399835377" /><path d="M 25.398753493254645 57.213857153982495 a86.0,86.0 0 0,1 29.58750427330803,-30.492523968695096" fill="none" id="id11" stroke="none" /><text fill="#e1ed5e" style="font-size:6.75px; font-family:Arial;" text-anchor="middle"><textPath startOffset="21.46611528233685" xlink:href="#id11">November</textPath></text><path d="M 82.54541684631803 88.32363383020206 l -7.694381909341194 -5.147210897716851 a30.25728324036659,30.25728324036659 0 0,0 0.29331631443189976,-0.43040549809662987 l 7.604641129240553 5.278894419083897" fill="#ff6509" stroke="none" /><path d="M 84.31358615837235 86.03803664274999 l -8.590714282894872 -7.646313506793023 a32.500716592217174,32.500716592217174 0 0,0 0.37554788407795814,-0.41468935345841357 l 8.45782275820087 7.793055647520993" fill="#ff840c" stroke="none" /><line stroke="#e1ed5e" stroke-width="0.3" x1="56.762969772571076" x2="54.21961505331055" y1="26.818313649435495" y2="22.513508569990535" /><path d="M 56.25429882871897 25.957352633546506 a86.0,86.0 0 0,1 42.265352541879196,-11.944610805530505" fill="none" id="id12" stroke="none" /><text fill="#e1ed5e" style="font-size:6.75px; font-family:Arial;" text-anchor="middle"><textPath startOffset="22.20632615414155" xlink:href="#id12">December</textPath></text><path d="M 89.63071344664047 81.73862282372117 l -10.641599773121062 -18.74094868687048 a42.551491906947014,42.551491906947014 0 0,0 0.6400472032119223,-0.35618557562303355 l 10.317428480837094 18.9213496600537" fill="#f7ff18" stroke="none" /><path d="M 90.26544431104013 81.39251694778311 l -4.003759415451051 -7.65313670686078 a29.63716336019603,29.63716336019603 0 0,0 0.4540688804172204,-0.23259171668069786 l 3.8714300474450667 7.7209209488539825" fill="#ff5c08" stroke="none" /><path d="M 90.58718382345135 81.22770947309562 l -5.076515906231954 -10.124263522075923 a32.32571082143029,32.32571082143029 0 0,0 0.4995534274221969,-0.24512869729935577 l 4.901491211799331 10.21014737951011" fill="#ff820b" stroke="none" /><path d="M 91.23893434514133 80.91482961587045 l -9.183584408230184 -20.00558836936783 a43.01276421959936,43.01276421959936 0 0,0 0.6755418463712566,-0.3030959348946088 l 8.837860443392152 20.160704634778966" fill="#f2ff19" stroke="none" /><path d="M 91.56875222667455 80.76684994638697 l -4.60920131176183 -10.51439393548509 a32.48029688478972,32.48029688478972 0 0,0 0.5139871526956418,-0.220062474889368 l 4.42753040127588 10.592175938337244" fill="#ff840c" stroke="none" /><path d="M 92.23578459929587 80.48803036053334 l -11.129279233236941 -27.968590166673152 a51.101543019630824,51.101543019630824 0 0,0 0.8200990615289935,-0.31818569486988524 l 10.64619700670827 28.15601856543359" fill="#93ff23" stroke="none" /><path d="M 92.57280143429618 80.3572730644239 l -22.28159569711144 -58.92818080672833 a84.0,84.0 0 0,0 1.3568706969097222,-0.4997469287747105 l 21.26394267442915 59.30299100330936" fill="#4dd2ff" stroke="none" /><path d="M 94.63758080256005 79.69619591428918 l -3.821538856521993 -14.469546932436142 a35.96569235491227,35.96569235491227 0 0,0 0.5999267782959828,-0.15293469371457566 l 3.5719031895410107 14.533184622319581" fill="#ffb310" stroke="none" /></svg>