<?xml version="1.0" encoding="utf-8" ?>
<svg baseProfile="full" height="200mm" version="1.1" viewBox="0,0,200,200" width="200mm" xmlns="http://www.w3.org/2000/svg" xmlns:ev="http://www.w3.org/2001/xml-events" xmlns:xlink="http://www.w3.org/1999/xlink"><defs /><rect fill="#1a1a1a" height="200" width="200" x="0" y="0" /><text alignment-baseline="middle" fill="#e1ed5e" style="dominant-baseline: central; font-size:9.0px; font-family:Arial;" text-anchor="middle" x="100.0" y="100.0">2025</text><line stroke="#e1ed5e" stroke-width="0.3" x1="100.0" x2="100.0" y1="15.0" y2="10.0" /><path d="M 100.0 14.0 a86.0,86.0 0 0,1 42.46469731375804,11.215312516191453" fill="none" id="id37" stroke="none" /><text fill="#e1ed5e" style="font-size:6.75px; font-family:Arial;" text-anchor="middle"><textPath startOffset="22.20632615414155" xlink:href="#id37">January</textPath></text><path d="M 100.0 79.0 l 0.0 -5.664925101880609 a26.66492510188061,26.66492510188061 0 0,0 0.45899285264732737,0.00395069639195074 l -0.09751237337479901 5.664085782097217" fill="#ff2203" stroke="none" /><path d="M 101.44485096284872 79.0497635885617 l 1.8052669957457457 -26.176243307525393 a47.23842035299947,47.23842035299947 0 0,0 0.8107233397260317,0.06292773447648864 l -2.2555805248341185 26.14129031086044" fill="#c8ff1d" stroke="none" /><path d="M 106.0581310904928 79.89281104454417 l 18.174393271478365 -60.321566866367476 a84.0,84.0 0 0,0 1.380858509157127,0.4290394604699177 l -19.21003715334621 59.99978727101504" fill="#4dd2ff" stroke="none" /><path d="M 109.41281617654863 81.2277094730956 l 1.8416573582799995 -3.672878162305715 a25.10873895744778,25.10873895744778 0 0,0 0.3846892109252603,0.19705275524593366 l -1.9046070567940154 3.6406328817472806" fill="#ff0a01" stroke="none" /><path d="M 109.73455568895987 81.39251694778311 l 5.789340824804772 -11.066253532581369 a33.48913265335591,33.48913265335591 0 0,0 0.5084845635234768,0.27161484389863183 l -5.97897043485656 10.964959962180982" fill="#ff840c" stroke="none" /><path d="M 110.05341064243156 81.56283822128135 l 1.7854784504064807 -3.274426581524598 a24.729584793869257,24.729584793869257 0 0,0 0.37197524398256193,0.20700382054724417 l -1.8415777834610778 3.2432073634171736" fill="#ff0500" stroke="none" /><path d="M 110.36928655335952 81.73862282372117 l 3.6725793472256294 -6.467788919168257 a28.437750504324807,28.437750504324807 0 0,0 0.4235914894804075,0.24537153164584177 l -3.7833675691713653 6.403613230132366" fill="#ff3c05" stroke="none" /><line stroke="#e1ed5e" stroke-width="0.3" x1="143.23703022742887" x2="145.7803849466894" y1="26.81831364943548" y2="22.513508569990506" /><path d="M 143.74570117128098 25.957352633546492 a86.0,86.0 0 0,1 28.547481713284135,27.462654790039103" fill="none" id="id38" stroke="none" /><text fill="#e1ed5e" style="font-size:6.75px; font-family:Arial;" text-anchor="middle"><textPath startOffset="19.985693538727396" xlink:href="#id38">February</textPath></text><path d="M 110.68208982089419 81.91981866633111 l 1.8984239163626502 -3.2132147577408525 a24.73212572746167,24.73212572746167 0 0,0 0.3646668718236591,0.21970770998827635 l -1.9534528544039467 3.1800604382939617" fill="#ff0500" stroke="none" /><path d="M 111.2981086023043 82.29822771554956 l 4.005367308172941 -6.2755725317066675 a28.444849083365746,28.444849083365746 0 0,0 0.4104632008976007,0.2669766836405358 l -4.112797534854821 6.205696923906604" fill="#ff3c05" stroke="none" /><path d="M 111.60114157652 82.49532879139004 l 4.121546819588819 -6.2188984999384935 a28.46068674711651,28.46068674711651 0 0,0 0.40603276873343125,0.27415513794003726 l -4.227984282728793 6.147031449699786" fill="#ff3c05" stroke="none" /><path d="M 112.77801427241765 83.33499621200491 l 2.3305458327013455 -3.0394828415476254 a24.83013052289136,24.83013052289136 0 0,0 0.33694185000791377,0.2629884584142422 l -2.3825202378686896 2.9989159939101593" fill="#ff0601" stroke="none" /><path d="M 113.06298171725822 83.55741782278167 l 4.457483494511308 -5.610705139797118 a28.16583360604937,28.16583360604937 0 0,0 0.37701524301231054,0.30485344019657595 l -4.55340213608811 5.533145602336412" fill="#ff3805" stroke="none" /><path d="M 113.34407831869373 83.78471172551755 l 4.728369749765584 -5.745760533598016 a28.441185698526198,28.441185698526198 0 0,0 0.37534572649012743,0.31434125157025655 l -4.826573013214829 5.66351812463394" fill="#ff3c05" stroke="none" /><path d="M 113.6212207817346 84.01681056812373 l 5.523353707778996 -6.481123096475178 a29.51542088054959,29.51542088054959 0 0,0 0.38384973704899417,0.33287070945076835 l -5.634097243474754 6.3850873936047385" fill="#ff4c07" stroke="none" /><path d="M 113.89432698308785 84.25364557470407 l 2.4703563521928116 -2.7996395022052636 a24.7337168946142,24.7337168946142 0 0,0 0.3168141943125071,0.2844389117556621 l -2.5181815341013087 2.756701581680304" fill="#ff0500" stroke="none" /><path d="M 114.16331599549186 84.49514656593476 l 2.505470083948662 -2.7427861136067295 a24.714869581365626,24.714869581365626 0 0,0 0.3116334580087701,0.2896293361779738 l -2.5523114257522788 2.699252191354115" fill="#ff0400" stroke="none" /><path d="M 114.42810811169701 84.74124197986012 l 4.767463235888487 -5.041933933622241 a27.939005944410177,27.939005944410177 0 0,0 0.34659900977767166,0.3334279727960846 l -4.853545489278577 4.959122874063855" fill="#ff3505" stroke="none" /><path d="M 114.94478906791727 85.2469230424477 l 9.192799498325865 -9.074874047255468 a33.917464983113796,33.917464983113796 0 0,0 0.40658276289753176,0.4190192767997598 l -9.347646524926505 8.915290574905594" fill="#ff8a0c" stroke="none" /><path d="M 115.68641384162765 86.03803664274999 l 2.8978827282728172 -2.579310534214144 a24.879506043136157,24.879506043136157 0 0,0 0.2819773746871667,0.3223488839853381 l -2.941851966537832 2.5290460940258583" fill="#ff0701" stroke="none" /><path d="M 115.9244219780498 86.31012108654704 l 3.0112917631799605 -2.588741975553983 a24.971078329495732,24.971078329495732 0 0,0 0.27740416876443813,0.32835903803813365 l -3.055406545431516 2.536523987886743" fill="#ff0801" stroke="none" /><path d="M 116.15771136456269 86.58626213691792 l 2.694622476302262 -2.2370098537817196 a24.502171237348318,24.502171237348318 0 0,0 0.2666087178636254,0.3268307639311586 l -2.7327296862422963 2.19029492024246" fill="#ff0100" stroke="none" /><path d="M 116.38621287248628 86.86637796730983 l 17.9197019142721 -14.362720276611084 a43.96526617395371,43.96526617395371 0 0,0 0.4682215416859509,0.5945938092991454 l -18.164277536552014 14.0521340733589" fill="#f0ff19" stroke="none" /><path d="M 116.82858285166822 87.43820079747576 l 6.2664070104648895 -4.677598065183901 a28.819704628706617,28.819704628706617 0 0,0 0.2933261131175572,0.40009648864583186 l -6.345995736096073 4.569039132866576" fill="#ff4206" stroke="none" /><path d="M 117.2510076193507 88.02491185347247 l 3.0814073332730643 -2.1390127026498957 a24.751059383113873,24.751059383113873 0 0,0 0.2399385780563008,0.35208025643215857 l -3.1177703769980982 2.0856544229473304" fill="#ff0500" stroke="none" /><path d="M 117.45458315368197 88.32363383020206 l 5.1284025600084915 -3.4306809638221947 a27.170096003550807,27.170096003550807 0 0,0 0.2566970697501275,0.39096724820311646 l -5.186696265116544 3.3418956516414045" fill="#ff2904" stroke="none" /><line stroke="#e1ed5e" stroke-width="0.3" x1="172.23445277983987" x2="176.4835382374775" y1="55.19839476539836" y2="52.563006222186495" /><path d="M 173.08426987136738 54.67131705675599 a86.0,86.0 0 0,1 12.851231095245387,41.99856678651699" fill="none" id="id39" stroke="none" /><text fill="#e1ed5e" style="font-size:6.75px; font-family:Arial;" text-anchor="middle"><textPath startOffset="22.20632615414155" xlink:href="#id39">March</textPath></text><path d="M 117.84615892207809 88.93136811851018 l 28.49143674512137 -17.671098104834027 a54.52655180647006,54.52655180647006 0 0,0 0.4878417932554039,0.801883638749123 l -28.791394336662997 17.17804669287782" fill="#74ff27" stroke="none" /><path d="M 118.03404312379186 89.2402003453031 l 15.652970153964375 -9.339160481179661 a39.22732545202744,39.22732545202744 0 0,0 0.340979464651024,0.5828444352060287 l -15.811409293085726 9.068336633619737" fill="#ffd213" stroke="none" /><path d="M 118.73160827565052 90.50648371742162 l 3.4057217873740564 -1.7260811120205182 a24.81815359804557,24.81815359804557 0 0,0 0.18984704154811277,0.38272005113749263 l -3.4349288418755775 1.6672014723840758" fill="#ff0601" stroke="none" /><path d="M 119.04729006885535 91.15688171328212 l 3.3743717894802705 -1.5666254238722344 a24.720309152794044,24.720309152794044 0 0,0 0.17586461482748558,0.38749436703428153 l -3.400838721271103 1.50830904799589" fill="#ff0500" stroke="none" /><path d="M 119.196687751892 91.48605970444005 l 3.5005642590271218 -1.5525384111741118 a24.829402779775084,24.829402779775084 0 0,0 0.16991504040531652,0.3921873400692942 l -3.526770009275119 1.4920519265182148" fill="#ff0601" stroke="none" /><path d="M 119.34039704204932 91.81776055985345 l 3.4664435830125786 -1.4665299445663826 a24.76389973199592,24.76389973199592 0 0,0 0.1627086243400069,0.3940118397716414 l -3.491173894238783 1.4066435343414383" fill="#ff0500" stroke="none" /><path d="M 119.47837535516314 92.15188598940014 l 4.246775546779365 -1.7110861691921044 a25.578527975575085,25.578527975575085 0 0,0 0.1610307801382094,0.4098057709849169 l -4.275599876799275 1.637731393311403" fill="#ff1201" stroke="none" /><path d="M 119.7369772167798 92.82701384747503 l 3.4787543873185194 -1.2642795689634203 a24.701369329827298,24.701369329827298 0 0,0 0.14179399868998763,0.400870728481808 l -3.5000014668183166 1.2042112140549976" fill="#ff0400" stroke="none" /><path d="M 120.08093135843002 93.85539295169968 l 18.75287401375462 -5.738231946718501 a40.61115982419434,40.61115982419434 0 0,0 0.19878989244673026,0.6702206935812247 l -18.84886980331305 5.414581866390746" fill="#ffe415" stroke="none" /><path d="M 120.18372546131832 94.20196356495316 l 9.733932142423047 -2.7961980223226917 a31.12759390641913,31.12759390641913 0 0,0 0.1435029947894873,0.5162566242557569 l -9.780621907778897 2.6282300946479826" fill="#ff6309" stroke="none" /><path d="M 120.28053869075195 94.5502522615342 l 3.5873179848716545 -0.9639772578687413 a24.714579717582026,24.714579717582026 0 0,0 0.10686545212572698,0.41179618020189684 l -3.603379768867684 0.902084652117994" fill="#ff0400" stroke="none" /><path d="M 120.37134235888165 94.90015583598534 l 3.599419228528236 -0.9010931544453985 a24.71049695535344,24.71049695535344 0 0,0 0.0997447443366123,0.4135063601498324 l -3.614396773125668 0.83900156263616" fill="#ff0400" stroke="none" /><path d="M 120.45610955862082 95.25157060432595 l 4.531400387995503 -1.0518634906733144 a25.65188201476964,25.65188201476964 0 0,0 0.09614033802494532,0.4309782841399707 l -4.548835113022486 0.9737070369833799" fill="#ff1302" stroke="none" /><path d="M 120.67395015179393 96.31383870115 l 11.234049031861927 -2.0030287616340874 a32.41122175186388,32.41122175186388 0 0,0 0.09320254035477693,0.5500866690671967 l -11.266863433736928 1.8093563042510528" fill="#ff750a" stroke="none" /><path d="M 120.78858239683441 97.02765380044208 l 3.682995342298454 -0.5265937330261289 a24.72045100102857,24.72045100102857 0 0,0 0.056602770915436765,0.42175638902655926 l -3.691514112271727 0.46311900193490524" fill="#ff0500" stroke="none" /><path d="M 120.87857604477298 97.74499172005257 l 8.187040350438158 -0.8842482235814989 a29.234653885902528,29.234653885902528 0 0,0 0.04973075554712576,0.5007819216259912 l -8.201048231667512 0.7431907712510727" fill="#ff4806" stroke="none" /><line stroke="#e1ed5e" stroke-width="0.3" x1="184.98032266829074" x2="189.97916517819016" y1="98.17113171792111" y2="98.06355123074" /><path d="M 185.9800911702706 98.14961562048488 a86.0,86.0 0 0,1 -9.607161424134198,41.387399972396054" fill="none" id="id40" stroke="none" /><text fill="#e1ed5e" style="font-size:6.75px; font-family:Arial;" text-anchor="middle"><textPath startOffset="21.466115282336823" xlink:href="#id40">April</textPath></text><path d="M 120.99513854157772 99.54816195383933 l 3.7089967304250027 -0.07982161358796165 a24.709855554640793,24.709855554640793 0 0,0 0.005491462856942163,0.4253198500745677 l -3.7098212003996607 0.01596550545293125" fill="#ff0400" stroke="none" /><path d="M 120.99824983174949 100.27111621757518 l 6.241338670677204 0.08058424614232511 a27.241858875592833,27.241858875592833 0 0,0 -0.010089784318011158,0.4688326302117953 l -6.239026823674186 -0.1880066921442352" fill="#ff2a04" stroke="none" /><path d="M 120.95626037817324 101.35467743843564 l 11.085238811368743 0.7165840968970337 a32.10837577114682,32.10837577114682 0 0,0 -0.040400656360585686,0.5512348575692694 l -11.07126159634382 -0.9072920909630734" fill="#ff710a" stroke="none" /><path d="M 120.92983693683757 101.71520430193887 l 9.314771902687752 0.7633474110325956 a30.34599779954133,30.34599779954133 0 0,0 -0.04714525855166758,0.5202439995666192 l -9.30025204785901 -0.9235727991477853" fill="#ff5808" stroke="none" /><path d="M 120.89721153311464 102.0752229133903 l 3.717755209028908 0.3691961860043926 a24.73604197219755,24.73604197219755 0 0,0 -0.04572362949209955,0.4233440222295228 l -3.7108492780357563 -0.4331365301187068" fill="#ff0500" stroke="none" /><path d="M 120.76222939487914 103.15116336523771 l 3.7520024497730553 0.5694558344935284 a24.794970662672075,24.794970662672075 0 0,0 -0.0676763913832231,0.42142095374549055 l -3.7416443040285436 -0.6339560179322239" fill="#ff0600" stroke="none" /><path d="M 120.64145759157962 103.86396538481128 l 11.179438793463039 2.092728400012755 a32.37362580239944,32.37362580239944 0 0,0 -0.10724930080446182,0.5468618742114375 l -11.141759559682912 -2.2848540012921377" fill="#ff750a" stroke="none" /><path d="M 120.5718875245553 104.21870165774334 l 3.6638109408623403 0.7513421056490175 a24.740056893966145,24.740056893966145 0 0,0 -0.0891419136616151,0.4164413437559414 l -3.650334988476282 -0.814297268821128" fill="#ff0500" stroke="none" /><path d="M 120.41448212921028 104.9243191809786 l 3.6662757527249155 0.8843678667737265 a24.77143002305499,24.77143002305499 0 0,0 -0.10355482308361275,0.41365004225718605 l -3.650509615346242 -0.9473457484283085" fill="#ff0500" stroke="none" /><path d="M 120.02730092923936 106.31721596034902 l 16.44670687780128 5.187788386998301 a38.24550131114171,38.24550131114171 0 0,0 -0.20344375524870548,0.6261354962700568 l -16.354970871536327 -5.470122783246154" fill="#ffc512" stroke="none" /><path d="M 119.12269723197855 108.67885076344098 l 3.3850238350595605 1.5362956563493615 a24.717336507183504,24.717336507183504 0 0,0 -0.17917171526213493,0.38591993481056336 l -3.358077502957594 -1.5943356584387554" fill="#ff0400" stroke="none" /><path d="M 118.97047184881838 109.00673069616215 l 3.3953716471186657 1.6120420347313167 a24.758620510745665,24.758620510745665 0 0,0 -0.18609845801587344,0.3834179440551973 l -3.3671199324880776 -1.6702489347517895" fill="#ff0500" stroke="none" /><path d="M 118.81262510543309 109.33194174019688 l 3.065398379603462 1.5205809358680076 a24.421817296145537,24.421817296145537 0 0,0 -0.1900498032748955,0.37498629189087723 l -3.0387699065422975 -1.5731214394615791" fill="#ff0000" stroke="none" /><line stroke="#e1ed5e" stroke-width="0.3" x1="174.80103733775053" x2="179.2010983576182" y1="140.37084112569926" y2="142.7455964860345" /><path d="M 175.68104954172406 140.8457921977663 a86.0,86.0 0 0,1 -30.038265399797805,32.042727171017184" fill="none" id="id41" stroke="none" /><text fill="#e1ed5e" style="font-size:6.75px; font-family:Arial;" text-anchor="middle"><textPath startOffset="22.206326154141568" xlink:href="#id41">May</textPath></text><path d="M 118.48025628344425 109.97397251340804 l 3.5238288956735584 1.9018444337748484 a25.004295485633435,25.004295485633435 0 0,0 -0.20768280941617115,0.37700462464020085 l -3.490569676805878 -1.962219576812854" fill="#ff0901" stroke="none" /><path d="M 117.94076556474637 110.91462005526583 l 4.222738701318026 2.5689867219556675 a25.942794241842723,25.942794241842723 0 0,0 -0.2353818880423524,0.3795105507490449 l -4.177892173607711 -2.641293604069986" fill="#ff1702" stroke="none" /><line stroke="#e1ed5e" stroke-width="0.3" x1="143.8653032363475" x2="146.44561519142675" y1="172.8068346515853" y2="177.08958963109032" /><path d="M 144.38136562736335 173.6633856474863 a86.0,86.0 0 0,1 -40.68145358897372,12.25698825130547" fill="none" id="id42" stroke="none" /><text fill="#e1ed5e" style="font-size:6.75px; font-family:Arial;" text-anchor="middle"><textPath startOffset="21.466115282336833" xlink:href="#id42">June</textPath></text><line stroke="#e1ed5e" stroke-width="0.3" x1="102.19456741930631" x2="102.32365962044197" y1="184.97166512339345" y2="189.96999836594603" /><path d="M 102.22038585953345 185.97133177190398 a86.0,86.0 0 0,1 -42.740103519485714,-10.115201625700543" fill="none" id="id43" stroke="none" /><text fill="#e1ed5e" style="font-size:6.75px; font-family:Arial;" text-anchor="middle"><textPath startOffset="22.20632615414155" xlink:href="#id43">July</textPath></text><line stroke="#e1ed5e" stroke-width="0.3" x1="58.666819895761336" x2="56.23545636021788" y1="174.27360380694188" y2="178.64263932499728" /><path d="M 58.180547188652646 175.14741091055294 a86.0,86.0 0 0,1 -31.652253787137756,-30.449443065178592" fill="none" id="id44" stroke="none" /><text fill="#e1ed5e" style="font-size:6.75px; font-family:Arial;" text-anchor="middle"><textPath startOffset="22.20632615414155" xlink:href="#id44">August</textPath></text><line stroke="#e1ed5e" stroke-width="0.3" x1="26.63291911575756" x2="22.317208475507996" y1="142.92168965132927" y2="145.44649492493687" /><path d="M 25.769776987707644 143.4266507060508 a86.0,86.0 0 0,1 -11.730757126820373,-40.83630448921669" fill="none" id="id45" stroke="none" /><text fill="#e1ed5e" style="font-size:6.75px; font-family:Arial;" text-anchor="middle"><textPath startOffset="21.46611528233685" xlink:href="#id45">September</textPath></text><line stroke="#e1ed5e" stroke-width="0.3" x1="15.007084014347285" x2="10.007500721073583" y1="101.09737516637583" y2="101.16192664675087" /><path d="M 14.007167355692545 101.11028546245083 a86.0,86.0 0 0,1 10.666146001902534,-42.60595125391555" fill="none" id="id46" stroke="none" /><text fill="#e1ed5e" style="font-size:6.75px; font-family:Arial;" text-anchor="middle"><textPath startOffset="22.20632615414155" xlink:href="#id46">October</textPath></text><line stroke="#e1ed5e" stroke-width="0.3" x1="26.266209847984243" x2="21.928928074336255" y1="57.711370442889674" y2="55.22380399835377" /><path d="M 25.398753493254645 57.213857153982495 a86.0,86.0 0 0,1 29.58750427330803,-30.492523968695096" fill="none" id="id47" stroke="none" /><text fill="#e1ed5e" style="font-size:6.75px; font-family:Arial;" text-anchor="middle"><textPath startOffset="21.46611528233685" xlink:href="#id47">November</textPath></text><line stroke="#e1ed5e" stroke-width="0.3" x1="56.762969772571076" x2="54.21961505331055" y1="26.818313649435495" y2="22.513508569990535" /><path d="M 56.25429882871897 25.957352633546506 a86.0,86.0 0 0,1 42.265352541879196,-11.944610805530505" fill="none" id="id48" stroke="none" /><text fill="#e1ed5e" style="font-size:6.75px; font-family:Arial;" text-anchor="middle"><textPath startOffset="22.20632615414155" xlink:href="#id48">December</textPath></text></svg>