<?xml version="1.0" encoding="utf-8" ?>
<svg baseProfile="full" height="200mm" version="1.1" viewBox="0,0,200,200" width="200mm" xmlns="http://www.w3.org/2000/svg" xmlns:ev="http://www.w3.org/2001/xml-events" xmlns:xlink="http://www.w3.org/1999/xlink"><defs /><rect fill="#1a1a1a" height="200" width="200" x="0" y="0" /><text alignment-baseline="middle" fill="#e1ed5e" style="dominant-baseline: central; font-size:9.0px; font-family:Arial;" text-anchor="middle" x="100.0" y="100.0">2026</text><line stroke="#e1ed5e" stroke-width="0.3" x1="100.0" x2="100.0" y1="15.0" y2="10.0" /><path d="M 100.0 14.0 a86.0,86.0 0 0,1 42.46469731375804,11.215312516191453" fill="none" id="id49" stroke="none" /><text fill="#e1ed5e" style="font-size:6.75px; font-family:Arial;" text-anchor="middle"><textPath startOffset="22.20632615414155" xlink:href="#id49">January</textPath></text><path d="M 100.36148047927253 79.00311137660856 l 0.27058219490214797 -15.716987598519452 a36.71931658489682,36.71931658489682 0 0,0 0.6318753803632886,0.016319476860825854 l -0.5410842104603044 15.710001329516267" fill="#ff7e0b" stroke="none" /><path d="M 103.59715602781102 79.31037775812273 l 10.791468083433088 -62.06886672563182 a84.0,84.0 0 0,0 1.4224195155883965,0.2599380745970459 l -11.858282720124386 61.87391316968404" fill="#4dd2ff" stroke="none" /><path d="M 106.0581310904928 79.89281104454417 l 18.097477899023442 -60.06628154744173 a83.7333793545524,83.7333793545524 0 0,0 1.3764755878835164,0.42767766549523933 l -19.128738859617677 59.74586374706397" fill="#4dd5ff" stroke="none" /><path d="M 108.43124777332544 80.76684994638697 l 3.721903828853347 -8.490313266789373 a30.270274401518698,30.270274401518698 0 0,0 0.47541322745419756,0.21330405719574483 l -3.867499174774325 8.424988879077098" fill="#ff1a02" stroke="none" /><line stroke="#e1ed5e" stroke-width="0.3" x1="143.23703022742887" x2="145.7803849466894" y1="26.81831364943548" y2="22.513508569990506" /><path d="M 143.74570117128098 25.957352633546492 a86.0,86.0 0 0,1 28.547481713284135,27.462654790039103" fill="none" id="id50" stroke="none" /><text fill="#e1ed5e" style="font-size:6.75px; font-family:Arial;" text-anchor="middle"><textPath startOffset="19.985693538727396" xlink:href="#id50">February</textPath></text><path d="M 116.15771136456269 86.58626213691792 l 7.577513471754035 -6.290666856879611 a30.848411035230885,30.848411035230885 0 0,0 0.33566230659985746,0.41148229873353925 l -7.684674270430301 6.159300388537971" fill="#ff2303" stroke="none" /><path d="M 116.38621287248628 86.86637796730983 l 13.917329944023985 -11.154801454823165 a38.8359655827026,38.8359655827026 0 0,0 0.41359548708403293,0.5252242673174077 l -14.10727951170198 10.913584793552719" fill="#ff9e0e" stroke="none" /><path d="M 116.60985879189232 87.15038557335679 l 33.272391393799964 -25.739978034694843 a63.066595991223096,63.066595991223096 0 0,0 0.6568658053069507,0.8643584028397231 l -33.71053313933103 25.16343485597409" fill="#30ff34" stroke="none" /><path d="M 117.04232023915458 87.72973835380427 l 6.243402612403382 -4.495173341522175 a28.693286654668277,28.693286654668277 0 0,0 0.285139372437092,0.40330942089721383 l -6.319854604644357 4.387037420293168" fill="#ff0000" stroke="none" /><path d="M 117.2510076193507 88.02491185347247 l 7.686036076375287 -5.335396142816668 a30.356366953477476,30.356366953477476 0 0,0 0.2942768391861991,0.4318149496510334 l -7.776737381230219 5.202303169895228" fill="#ff1b02" stroke="none" /><line stroke="#e1ed5e" stroke-width="0.3" x1="172.23445277983987" x2="176.4835382374775" y1="55.19839476539836" y2="52.563006222186495" /><path d="M 173.08426987136738 54.67131705675599 a86.0,86.0 0 0,1 12.851231095245387,41.99856678651699" fill="none" id="id51" stroke="none" /><text fill="#e1ed5e" style="font-size:6.75px; font-family:Arial;" text-anchor="middle"><textPath startOffset="22.20632615414155" xlink:href="#id51">March</textPath></text><path d="M 118.03404312379186 89.2402003453031 l 7.8486677024863285 -4.682815243112634 a30.13949360222874,30.13949360222874 0 0,0 0.26198442730715815,0.4478163097677821 l -7.928111804263814 4.547019520990956" fill="#ff1802" stroke="none" /><path d="M 118.89224826269711 90.83032412892265 l 41.48128938915349 -20.133653397088832 a67.10923300707576,67.10923300707576 0 0,0 0.49546365215768845,1.0435728104288942 l -41.82171123515293 19.4166381710194" fill="#35ff6a" stroke="none" /><path d="M 119.47837535516314 92.15188598940014 l 9.172063432446276 -3.695554594146967 a30.888572766943614,30.888572766943614 0 0,0 0.19446040736849513,0.4948805259422454 l -9.23431738969647 3.5371250633089373" fill="#ff2403" stroke="none" /><path d="M 119.61058180528143 92.48833698450437 l 9.2626909751801 -3.547993318764621 a30.918956633219103,30.918956633219103 0 0,0 0.18609591651219676,0.49864453518403495 l -9.322391480193922 3.388025646551253" fill="#ff2403" stroke="none" /><path d="M 119.97218684219823 93.5106431181261 l 40.72420673222204 -13.232096880759665 a63.8199649910012,63.8199649910012 0 0,0 0.3304795818512592,1.0477105861580676 l -40.9459417978415 12.529136128175178" fill="#31ff3e" stroke="none" /><path d="M 120.53481517161879 95.60439243477599 l 57.65833167395798 -12.34213197372869 a79.96449298587314,79.96449298587314 0 0,0 0.2765275134492571,1.348446362326085 l -57.86223848332224 11.347809955239194" fill="#47fcff" stroke="none" /><line stroke="#e1ed5e" stroke-width="0.3" x1="184.98032266829074" x2="189.97916517819016" y1="98.17113171792111" y2="98.06355123074" /><path d="M 185.9800911702706 98.14961562048488 a86.0,86.0 0 0,1 -9.607161424134198,41.387399972396054" fill="none" id="id52" stroke="none" /><text fill="#e1ed5e" style="font-size:6.75px; font-family:Arial;" text-anchor="middle"><textPath startOffset="21.466115282336823" xlink:href="#id52">April</textPath></text><path d="M 120.95626037817324 101.35467743843564 l 9.359922197753063 0.6050542987152131 a30.37945810014546,30.37945810014546 0 0,0 -0.03822522994849548,0.52155289256063 l -9.348120409140229 -0.7660803277726133" fill="#ff1b02" stroke="none" /><path d="M 120.49622156327973 104.57218783832717 l 8.76461853894415 1.9551643783521262 a29.980044870688594,29.980044870688594 0 0,0 -0.11669294767174848,0.5027101644317069 l -8.729665025341848 -2.105743200132398" fill="#ff1502" stroke="none" /><path d="M 120.32669344350535 105.2749913415812 l 8.647151090152725 2.2440269125264094 a29.93358151919331,29.93358151919331 0 0,0 -0.13372032687122623,0.4976230814704396 l -8.60724268693972 -2.392540927172397" fill="#ff1402" stroke="none" /><path d="M 120.13307415673323 105.97154293290107 l 14.781972260246748 4.384386671297048 a36.418480806686226,36.418480806686226 0 0,0 -0.1834333454926982,0.5994707864524775 l -14.704312142247916 -4.638184430301583" fill="#ff7a0b" stroke="none" /><path d="M 120.02730092923936 106.31721596034902 l 8.553686910948123 2.6980913536271642 a29.969127980079385,29.969127980079385 0 0,0 -0.15941827741241318,0.49063900791702514 l -8.505976382519464 -2.8449292615219846" fill="#ff1502" stroke="none" /><path d="M 119.26925614724726 108.34839909993367 l 8.193086800525846 3.5496522516755094 a29.928981040901355,29.928981040901355 0 0,0 -0.2088742379263239,0.4709562653354602 l -8.13077147786825 -3.690156853503657" fill="#ff1402" stroke="none" /><path d="M 119.12269723197855 108.67885076344098 l 8.218192755193437 3.7298330670759716 a30.024984591109686,30.024984591109686 0 0,0 -0.2176459420838015,0.4687899965565329 l -8.152772196269805 -3.870743130911335" fill="#ff1602" stroke="none" /><line stroke="#e1ed5e" stroke-width="0.3" x1="174.80103733775053" x2="179.2010983576182" y1="140.37084112569926" y2="142.7455964860345" /><path d="M 175.68104954172406 140.8457921977663 a86.0,86.0 0 0,1 -30.038265399797805,32.042727171017184" fill="none" id="id53" stroke="none" /><text fill="#e1ed5e" style="font-size:6.75px; font-family:Arial;" text-anchor="middle"><textPath startOffset="22.206326154141568" xlink:href="#id53">May</textPath></text><path d="M 117.94076556474637 110.91462005526583 l 7.772421362316773 4.728506471642224 a30.097763861837727,30.097763861837727 0 0,0 -0.27308039440970555,0.44029254647896393 l -7.689876328239103 -4.861595349486462" fill="#ff1702" stroke="none" /><path d="M 116.498646956653 112.99209946851258 l 6.4041436060464285 5.04303601131623 a29.151396661818,29.151396661818 0 0,0 -0.3138385058962369,0.391561790981846 l -6.316387188095337 -5.152525635876326" fill="#ff0701" stroke="none" /><path d="M 116.0416608686014 113.55231037782055 l 6.822249820859227 5.763570730277872 a29.93094844801657,29.93094844801657 0 0,0 -0.3358786760679038,0.39070278159128874 l -6.7220286352205445 -5.880150611030688" fill="#ff1402" stroke="none" /><path d="M 113.48314897796784 116.09983520530334 l 5.80847639481539 6.93573236513454 a30.04670003205049,30.04670003205049 0 0,0 -0.39937769131440376,0.3286606504569606 l -5.6882285749562955 -7.03468813444868" fill="#ff1602" stroke="none" /><path d="M 112.63410532772338 116.77436683061366 l 5.359741975589553 7.11615707514273 a29.90878923103474,29.90878923103474 0 0,0 -0.413902079386766,0.30619486332912393 l -5.236454925784223 -7.207361887211622" fill="#ff1402" stroke="none" /><line stroke="#e1ed5e" stroke-width="0.3" x1="143.8653032363475" x2="146.44561519142675" y1="172.8068346515853" y2="177.08958963109032" /><path d="M 144.38136562736335 173.6633856474863 a86.0,86.0 0 0,1 -40.68145358897372,12.25698825130547" fill="none" id="id54" stroke="none" /><text fill="#e1ed5e" style="font-size:6.75px; font-family:Arial;" text-anchor="middle"><textPath startOffset="21.466115282336833" xlink:href="#id54">June</textPath></text><path d="M 110.5260780823613 118.17145234162733 l 9.74179486226474 16.817523077108184 a40.43531964202066,40.43531964202066 0 0,0 -0.6052805994954596,0.34369412124680787 l -9.450865495848083 -16.98272036414962" fill="#ffb510" stroke="none" /><line stroke="#e1ed5e" stroke-width="0.3" x1="102.19456741930631" x2="102.32365962044197" y1="184.97166512339345" y2="189.96999836594603" /><path d="M 102.22038585953345 185.97133177190398 a86.0,86.0 0 0,1 -42.740103519485714,-10.115201625700543" fill="none" id="id55" stroke="none" /><text fill="#e1ed5e" style="font-size:6.75px; font-family:Arial;" text-anchor="middle"><textPath startOffset="22.20632615414155" xlink:href="#id55">July</textPath></text><line stroke="#e1ed5e" stroke-width="0.3" x1="58.666819895761336" x2="56.23545636021788" y1="174.27360380694188" y2="178.64263932499728" /><path d="M 58.180547188652646 175.14741091055294 a86.0,86.0 0 0,1 -31.652253787137756,-30.449443065178592" fill="none" id="id56" stroke="none" /><text fill="#e1ed5e" style="font-size:6.75px; font-family:Arial;" text-anchor="middle"><textPath startOffset="22.20632615414155" xlink:href="#id56">August</textPath></text><line stroke="#e1ed5e" stroke-width="0.3" x1="26.63291911575756" x2="22.317208475507996" y1="142.92168965132927" y2="145.44649492493687" /><path d="M 25.769776987707644 143.4266507060508 a86.0,86.0 0 0,1 -11.730757126820373,-40.83630448921669" fill="none" id="id57" stroke="none" /><text fill="#e1ed5e" style="font-size:6.75px; font-family:Arial;" text-anchor="middle"><textPath startOffset="21.46611528233685" xlink:href="#id57">September</textPath></text><line stroke="#e1ed5e" stroke-width="0.3" x1="15.007084014347285" x2="10.007500721073583" y1="101.09737516637583" y2="101.16192664675087" /><path d="M 14.007167355692545 101.11028546245083 a86.0,86.0 0 0,1 10.666146001902534,-42.60595125391555" fill="none" id="id58" stroke="none" /><text fill="#e1ed5e" style="font-size:6.75px; font-family:Arial;" text-anchor="middle"><textPath startOffset="22.20632615414155" xlink:href="#id58">October</textPath></text><line stroke="#e1ed5e" stroke-width="0.3" x1="26.266209847984243" x2="21.928928074336255" y1="57.711370442889674" y2="55.22380399835377" /><path d="M 25.398753493254645 57.213857153982495 a86.0,86.0 0 0,1 29.58750427330803,-30.492523968695096" fill="none" id="id59" stroke="none" /><text fill="#e1ed5e" style="font-size:6.75px; font-family:Arial;" text-anchor="middle"><textPath startOffset="21.46611528233685" xlink:href="#id59">November</textPath></text><line stroke="#e1ed5e" stroke-width="0.3" x1="56.762969772571076" x2="54.21961505331055" y1="26.818313649435495" y2="22.513508569990535" /><path d="M 56.25429882871897 25.957352633546506 a86.0,86.0 0 0,1 42.265352541879196,-11.944610805530505" fill="none" id="id60" stroke="none" /><text fill="#e1ed5e" style="font-size:6.75px; font-family:Arial;" text-anchor="middle"><textPath startOffset="22.20632615414155" xlink:href="#id60">December</textPath></text></svg>